<?xml version="1.0" encoding="UTF-8"?>
<!DOCTYPE svg PUBLIC "-//W3C//DTD SVG 1.1//EN" "http://www.w3.org/Graphics/SVG/1.1/DTD/svg11.dtd">
<!-- Creator: CorelDRAW (OEM Version) -->
<svg xmlns="http://www.w3.org/2000/svg" xml:space="preserve" width="8.26772in" height="11.6929in" version="1.1" style="shape-rendering:geometricPrecision; text-rendering:geometricPrecision; image-rendering:optimizeQuality; fill-rule:evenodd; clip-rule:evenodd"
viewBox="0 0 8267.72 11692.91"
 xmlns:xlink="http://www.w3.org/1999/xlink"
 xmlns:xodm="http://www.corel.com/coreldraw/odm/2003">
 <defs>
  <style type="text/css">
   <![CDATA[
    .str3 {stroke:#00AFEF;stroke-width:13.89;stroke-miterlimit:2.61313}
    .str2 {stroke:#3E4095;stroke-width:13.89;stroke-miterlimit:2.61313}
    .str0 {stroke:#FEFEFE;stroke-width:3;stroke-miterlimit:2.61313}
    .str1 {stroke:#3E4095;stroke-width:3;stroke-miterlimit:2.61313}
    .fil4 {fill:none}
    .fil0 {fill:#FEFEFE}
    .fil1 {fill:#00AFEF}
    .fil2 {fill:#3E4095}
    .fil3 {fill:#3E4095;fill-rule:nonzero}
   ]]>
  </style>
 </defs>
 <g id="Layer_x0020_1">
  <metadata id="CorelCorpID_0Corel-Layer"/>
  <g id="_2279816092432">
   <ellipse class="fil0 str0" cx="4172.37" cy="5230.69" rx="3919.43" ry="3161.58"/>
   <path class="fil0 str0" d="M4172.4 5226.3l2783.83 -2245.61c1537.55,1240.17 1537.56,3250.86 0.08,4491.09 -1537.48,1240.23 -4030.19,1240.31 -5567.74,0.13 -1537.54,-1240.18 -1537.56,-3250.87 -0.08,-4491.1l2783.91 2245.48z"/>
   <ellipse class="fil1" cx="4172.37" cy="5227.02" rx="3609.88" ry="2911.88"/>
   <path class="fil2" d="M4172.4 5222.98l2563.96 -2068.26c1416.11,1142.22 1416.13,2994.11 0.07,4136.39 -1416.05,1142.28 -3711.89,1142.35 -5128,0.12 -1416.11,-1142.22 -1416.12,-2994.11 -0.07,-4136.39l2564.04 2068.13z"/>
   <polygon class="fil2 str1" points="1299.25,4766.14 4143.36,5352.87 7067.39,4829.66 7054.95,7333.87 4220.28,8218.73 1322.59,7347.56 "/>
   <g>
    <path class="fil3" d="M4125.18 5367.23l-2581.5 -908.85 46.83 -98.95 2581.5 908.85 -1.07 99.32 -45.76 -0.37zm2770.63 -908.48l-2724.87 908.85 -44.69 -99.69 2724.87 -908.85 84.3 49.84 -39.61 49.84zm-84.3 2674.01l0 -2723.85 123.91 0 0 2723.85 -38.32 49.4 -85.58 -49.4zm-2614.87 894.87l2653.19 -944.27 47.26 98.8 -2653.19 944.27 -48.03 -0.28 0.77 -98.52zm-2605.15 -980.31l2653.19 980.59 -48.8 98.24 -2653.19 -980.59 -37.55 -49.12 86.35 -49.12zm37.55 -2638.41l0 2687.53 -123.91 0 0 -2687.53 85.37 -49.48 38.54 49.48z"/>
    <polygon id="_1" class="fil0" points="1567.09,4408.91 4148.59,5317.76 6873.47,4408.91 6873.47,7132.76 4220.28,8077.02 1567.09,7096.44 "/>
   </g>
   <g>
    <path class="fil3" d="M4127.93 5339.11l-2455.71 -880.92 48.31 -98.57 2455.71 880.92 -1.09 98.95 -47.22 -0.38zm2639.31 -880.54l-2592.09 880.92 -46.13 -99.33 2592.09 -880.92 85.54 49.67 -39.41 49.67zm-85.54 2590.49l0 -2640.15 124.94 0 0 2640.15 -38.09 49.2 -86.85 -49.2zm-2485.81 866.05l2523.91 -915.25 48.76 98.4 -2523.91 915.25 -49.55 -0.29 0.79 -98.11zm-2474.35 -950.16l2523.9 950.45 -50.34 97.82 -2523.9 -950.45 -37.3 -48.91 87.64 -48.91zm37.3 -2556.04l0 2604.95 -124.94 0 0 -2604.95 86.63 -49.28 38.31 49.28z"/>
    <polygon id="_1_0" class="fil0" points="1696.38,4408.91 4152.09,5289.83 6744.19,4408.91 6744.19,7049.06 4220.28,7964.31 1696.38,7013.86 "/>
   </g>
   <g>
    <path class="fil3" d="M4131.65 5315.61l-2293.98 -857.71 49.85 -97.99 2293.98 857.71 -1.12 98.4 -48.73 -0.41zm2470.12 -857.31l-2421.39 857.71 -47.61 -98.8 2421.39 -857.71 86.15 49.4 -38.54 49.4zm-86.15 2521.19l0 -2570.59 124.69 0 0 2570.59 -37.2 48.91 -87.5 -48.91zm-2320.49 842.22l2357.69 -891.13 50.3 97.82 -2357.69 891.13 -51.1 -0.31 0.8 -97.51zm-2306.58 -925.1l2357.68 925.41 -51.91 97.2 -2357.68 -925.41 -36.39 -48.6 88.3 -48.6zm36.39 -2487.71l0 2536.31 -124.69 0 0 -2536.31 87.27 -49 37.42 49z"/>
    <polygon id="_1_1" class="fil0" points="1862.6,4408.91 4156.58,5266.62 6577.96,4408.91 6577.96,6979.49 4220.28,7870.63 1862.6,6945.22 "/>
   </g>
   <g>
    <path class="fil3" d="M4137.58 5291.07l-1997.48 -834.11 54.46 -96.12 1997.48 834.11 -1.18 96.59 -53.29 -0.48zm2161.7 -833.63l-2108.41 834.11 -52.11 -97.07 2108.41 -834.11 88.31 48.54 -36.2 48.54zm-88.31 2451.31l0 -2499.85 124.5 0 0 2499.85 -34.78 47.96 -89.72 -47.96zm-2018.17 818.66l2052.94 -866.61 54.94 95.91 -2052.94 866.61 -55.78 -0.36 0.84 -95.55zm-1997.16 -899.59l2052.94 899.95 -56.62 95.19 -2052.94 -899.95 -33.94 -47.59 90.56 -47.59zm33.94 -2418.92l0 2466.52 -124.5 0 0 -2466.52 89.48 -48.06 35.02 48.06z"/>
    <polygon id="_1_2" class="fil0" points="2167.34,4408.91 4164.81,5243.02 6273.22,4408.91 6273.22,6908.76 4220.28,7775.37 2167.34,6875.42 "/>
   </g>
   <g>
    <path class="fil3" d="M4141.24 5273l-1818.43 -816.68 57.09 -94.83 1818.43 816.68 -1.2 95.36 -55.89 -0.52zm1975.31 -816.15l-1919.42 816.68 -54.69 -95.88 1919.42 -816.68 89.22 47.94 -34.54 47.94zm-89.22 2399.67l0 -2447.61 123.76 0 0 2447.61 -33.09 47.31 -90.67 -47.31zm-1835.84 801.2l1868.93 -848.5 57.58 94.61 -1868.93 848.5 -58.44 -0.4 0.85 -94.22zm-1810.48 -880.74l1868.92 881.14 -59.29 93.82 -1868.92 -881.14 -32.23 -46.91 91.52 -46.91zm32.23 -2368.06l0 2414.97 -123.76 0 0 -2414.97 90.43 -47.42 33.33 47.42z"/>
    <polygon id="_1_3" class="fil0" points="2351.36,4408.91 4169.79,5225.58 6089.2,4408.91 6089.2,6856.51 4220.28,7705.02 2351.36,6823.88 "/>
   </g>
   <g>
    <path class="fil3" d="M4143.94 5251.69l-1656.39 -796.13 60.69 -93.3 1656.39 796.13 -1.24 93.88 -59.44 -0.58zm1807.83 -795.55l-1748.39 796.13 -58.2 -94.46 1748.39 -796.13 91.28 47.23 -33.07 47.23zm-91.28 2338.8l0 -2386.03 124.35 0 0 2386.03 -31.58 46.53 -92.77 -46.53zm-1670.81 780.63l1702.39 -827.15 61.19 93.06 -1702.39 827.15 -62.07 -0.43 0.88 -92.62zm-1640.32 -858.54l1702.39 858.97 -62.94 92.19 -1702.39 -858.97 -30.7 -46.09 93.65 -46.09zm30.7 -2308.12l0 2354.21 -124.35 0 0 -2354.21 92.52 -46.65 31.83 46.65z"/>
    <polygon id="_1_4" class="fil0" points="2517.89,4408.91 4174.28,5205.04 5922.67,4408.91 5922.67,6794.93 4220.28,7622.09 2517.89,6763.12 "/>
   </g>
   <path class="fil3" d="M3158.33 5808.97l901.36 0 0 169.65 -577.87 497.08 598.99 0 0 182.5 -977.94 0 0 -176.17 571.42 -491.74 -515.95 0 0 -181.32zm1064.57 0l529.39 0c115.17,0 201.59,22.56 258.92,67.82 57.38,45.09 86.16,109.56 86.16,192.8 0,85.8 -31.19,152.83 -93.85,201.07 -62.6,48.26 -158.12,72.38 -286.52,72.38l-174.23 0 0 315.17 -319.87 0 0 -849.24zm319.87 362.04l78 0c61.44,0 104.39,-8.7 129.34,-26.3 24.71,-17.6 37.23,-40.13 37.23,-67.42 0,-26.69 -10.81,-49.44 -32.4,-67.82 -21.35,-18.59 -61.94,-27.87 -121.44,-27.87l-90.72 0 0 189.41zm721.17 -362.04l318.69 0 0 640.04 497.01 0 0 209.2 -815.7 0 0 -849.24z"/>
   <path class="fil4 str2" d="M4201.5 5219.09c0,414.39 0,414.39 0,414.39"/>
   <path class="fil4 str2" d="M4201.5 6591.75c0,1324.45 0,1324.45 0,1324.45"/>
   <path class="fil4 str3" d="M4201.5 7925.62c0,276.35 0,276.35 0,276.35"/>
   <rect class="fil0" transform="matrix(4.96831 -2.10602 4.96831 2.10602 1985.1 9695.18)" width="117.73" height="117.73"/>
  </g>
 </g>
</svg>
