<?xml version="1.0" encoding="UTF-8"?>
<!DOCTYPE svg PUBLIC "-//W3C//DTD SVG 1.1//EN" "http://www.w3.org/Graphics/SVG/1.1/DTD/svg11.dtd">
<!-- Creator: CorelDRAW (OEM Version) -->
<?xml-stylesheet href="scribble_Images.css" type="text/css"?>
<svg xmlns="http://www.w3.org/2000/svg" xml:space="preserve" width="8.26772in" height="11.6929in" version="1.1" style="shape-rendering:geometricPrecision; text-rendering:geometricPrecision; image-rendering:optimizeQuality; fill-rule:evenodd; clip-rule:evenodd"
viewBox="0 0 8267.72 11692.91"
 xmlns:xlink="http://www.w3.org/1999/xlink"
 xmlns:xodm="http://www.corel.com/coreldraw/odm/2003">
 <defs>
    <mask id="id0">
      <linearGradient id="id1" gradientUnits="userSpaceOnUse" x1="4295.52" y1="3089.19" x2="4295.52" y2="7207.94">
       <stop offset="0" style="stop-opacity:1; stop-color:white"/>
       <stop offset="1" style="stop-opacity:0; stop-color:white"/>
      </linearGradient>
     <rect style="fill:url(#id1)" x="-12.17" y="-1.3" width="8267.55" height="7450.12"/>
    </mask>
     <clipPath id="id2">
      <path d="M830.07 1562.89l5936.22 0 0 3159.71 -5936.22 0 0 -3159.71z"/>
     </clipPath>
     <clipPath id="id3">
      <path d="M-207.98 7375.83l8654 0 0 4317.29 -8654 0 0 -4317.29z"/>
     </clipPath>
    <clipPath id="id4">
     <path d="M3495.06 4896.77l4758.8 0 0 4436.84 -2940.23 -859.69 -395.09 -116.19 -281.44 -82.75c-21.68,31.65 -46.26,46.12 -170.21,66.76l-38.36 28.64c-58.48,52.25 -135.39,83.45 -230.72,93.57l-115.85 332.63 -205.27 333.37c-18.08,31.15 -25.74,24.78 -43.46,54.16 -63.31,104.96 -125.09,219.77 -167.77,223.93 -25.43,3.7 -46.48,-17.43 -49.05,-55.02l31.98 -235.31 78.22 -508.93 85.08 -241.02 -101.39 -20.32c-79.22,-10.94 -126.83,-37.39 -150.57,-75.5l-31.29 -102.55 -0.34 -32.34c-39.41,-41.96 -30.63,-89.32 -1.52,-149.3l-31.53 -3090.97z"/>
    </clipPath>
 </defs>
 <g id="Layer_x0020_1">
  <metadata id="CorelCorpID_0Corel-Layer"/>
  <rect class="fil0 str0" x="-2.81" y="0.21" width="8267.72" height="11692.91"/>
  <g id="_2846345229744">
   <rect class="fil0 str1" x="-10.68" y="579.58" width="7648.37" height="10289.74"/>
   <rect class="fil1" x="-10.67" y="571.7" width="8264.52" height="10946.5"/>
   <polygon class="fil2" style="mask:url(#id0)" points="-10.67,0.2 8253.88,0.2 8253.88,7447.33 -10.67,7447.33 "/>
   <rect class="fil0 str2" x="411.85" y="1231.59" width="6866.7" height="7952.51"/>
   <path class="fil3" d="M501.9 1015.84c581.92,431.52 1163.84,-287.68 1745.76,143.84 0,143.84 0,287.68 0,431.52 -581.92,-431.52 -1163.84,287.68 -1745.76,-143.84 0,-143.84 0,-287.68 0,-431.52z"/>
   <path class="fil4" d="M522.76 985.24c581.93,431.52 1163.85,-287.68 1745.77,143.84 0,143.84 0,287.68 0,431.52 -581.92,-431.52 -1163.84,287.68 -1745.77,-143.84 0,-143.84 0,-287.68 0,-431.52z"/>
   <path class="fil5" d="M681.19 1406.02l207.16 -146.47 -177.97 0c-12.48,0 -21.87,-1.61 -28.16,-4.88 -6.38,-3.22 -9.48,-7.55 -9.48,-12.82 0,-5.55 3.1,-9.98 9.48,-13.43 6.29,-3.38 15.68,-5.1 28.16,-5.1l229.31 0c29.76,0 44.59,8.21 44.59,24.58 0,7.77 -2.44,14.04 -7.41,18.7 -4.98,4.66 -14.93,12.15 -29.94,22.58l-193.65 136.21 213.45 0c12.58,0 22.06,1.55 28.26,4.6 6.28,3.11 9.39,7.44 9.39,12.93 0,5.77 -3.1,10.32 -9.39,13.65 -6.2,3.38 -15.67,5.05 -28.26,5.05l-261.88 0c-17.74,0 -31.17,-2.33 -40.08,-7.05 -9.01,-4.72 -13.52,-11.04 -13.52,-18.97 0,-2.67 0.75,-5.16 2.15,-7.44 1.5,-2.27 3.48,-4.44 5.92,-6.44 2.53,-2 5.91,-4.55 10.33,-7.65 4.41,-3.06 8.26,-5.77 11.54,-8.05zm634.63 -185.42l-183.98 0 0 58.54 169.43 0c12.48,0 21.77,1.66 27.87,4.94 6.1,3.33 9.2,7.65 9.2,13.09 0,5.44 -3,9.82 -9.02,13.26 -6.09,3.38 -15.48,5.1 -28.06,5.1l-169.43 0 0 67.8 190.26 0c12.86,0 22.53,1.78 29,5.27 6.57,3.55 9.76,8.21 9.76,14.04 0,5.65 -3.19,10.21 -9.76,13.76 -6.47,3.5 -16.14,5.27 -29,5.27l-221.89 0c-17.74,0 -30.6,-2.33 -38.39,-6.99 -7.79,-4.66 -11.64,-12.2 -11.64,-22.58l0 -179.15c0,-6.94 1.78,-12.6 5.26,-16.98 3.47,-4.38 8.92,-7.6 16.33,-9.6 7.41,-2 16.89,-3 28.44,-3l215.61 0c13.04,0 22.71,1.72 29,5.1 6.28,3.44 9.48,7.88 9.48,13.43 0,5.66 -3.2,10.15 -9.48,13.59 -6.3,3.39 -15.96,5.11 -29,5.11zm358.75 -63.25l-183.98 0 0 58.54 169.43 0c12.48,0 21.77,1.66 27.87,4.94 6.11,3.33 9.2,7.65 9.2,13.09 0,5.44 -3,9.82 -9.01,13.26 -6.1,3.38 -15.48,5.1 -28.06,5.1l-169.43 0 0 67.8 190.26 0c12.86,0 22.53,1.78 29,5.27 6.57,3.55 9.76,8.21 9.76,14.04 0,5.65 -3.19,10.2 -9.76,13.76 -6.47,3.5 -16.14,5.27 -29,5.27l-221.89 0c-17.74,0 -30.61,-2.33 -38.39,-6.99 -7.79,-4.66 -11.64,-12.2 -11.64,-22.58l0 -179.15c0,-6.94 1.78,-12.6 5.26,-16.98 3.47,-4.38 8.92,-7.6 16.33,-9.6 7.41,-2 16.89,-3 28.44,-3l215.61 0c13.04,0 22.71,1.72 29,5.1 6.29,3.44 9.48,7.88 9.48,13.43 0,5.66 -3.19,10.15 -9.48,13.59 -6.29,3.39 -15.96,5.11 -29,5.11zm240.49 118.51l-64.58 -151.8 0 164.5c0,9.1 -3.47,15.92 -10.32,20.47 -6.85,4.55 -15.96,6.82 -27.32,6.82 -11.07,0 -19.99,-2.27 -27.03,-6.76 -6.94,-4.5 -10.41,-11.32 -10.41,-20.53l0 -188.53c0,-10.43 4.59,-17.42 13.7,-21.08 9.2,-3.61 21.59,-5.44 37.17,-5.44l25.34 0c15.21,0 26.19,0.83 33.14,2.44 6.85,1.61 11.92,4.55 15.21,8.77 3.28,4.22 7.04,11.09 11.26,20.64l58.57 130.55 58.57 -130.55c4.22,-9.54 7.98,-16.42 11.26,-20.64 3.29,-4.22 8.36,-7.16 15.3,-8.77 6.85,-1.61 17.93,-2.44 33.13,-2.44l25.25 0c15.59,0 27.97,1.83 37.17,5.44 9.11,3.67 13.71,10.65 13.71,21.08l0 188.53c0,9.1 -3.48,15.92 -10.32,20.47 -6.85,4.55 -16.05,6.82 -27.6,6.82 -10.89,0 -19.71,-2.27 -26.75,-6.82 -6.94,-4.55 -10.42,-11.37 -10.42,-20.47l0 -164.5 -64.58 151.8c-4.22,9.87 -7.7,17.09 -10.33,21.69 -2.62,4.61 -7.6,8.82 -14.73,12.59 -7.13,3.83 -16.99,5.71 -29.67,5.71 -9.57,0 -17.55,-1.22 -24.21,-3.66 -6.57,-2.44 -11.74,-5.55 -15.39,-9.32 -3.67,-3.83 -6.57,-7.99 -8.64,-12.59 -2.06,-4.61 -4.22,-9.43 -6.47,-14.43z"/>
   <image x="5644.21" y="1123.68" width="1388.17" height="2278.26" xlink:href="scribble_Images_Images\scribble_Images_ImgID1.png"/>
   <g>
    <g style="clip-path:url(#id2)">
     <image x="830.07" y="1562.89" width="5936.22" height="3159.71" xlink:href="scribble_Images_Images\scribble_Images_ImgID2.png"/>
    </g>
   </g>
   <path class="fil6 str3" d="M1373.89 2514.1c-105.75,0 -189.11,-20.37 -249.88,-61.29 -51.17,-34.07 -76.75,-73.34 -76.75,-117.78 0,-22.78 7.89,-41.67 23.67,-56.67 15.99,-15 37.74,-22.59 65.67,-22.59 37.52,0 65.03,16.67 82.51,50 23.67,44.44 77.39,66.67 161.19,66.67 71.43,0 140.93,-13.52 207.87,-40.74 69.5,-27.78 104.25,-58.33 104.25,-91.67 0,-45.56 -21.74,-75.56 -65.02,-90 -30.7,-10.56 -92.53,-16.67 -185.48,-18.52 -72.07,-1.48 -136.45,-13.15 -193.59,-35.19 -76.97,-30.18 -114.91,-73.15 -113.63,-129.26 1.28,-70.37 44.56,-135.19 129.84,-193.89 85.49,-58.7 179.51,-88.15 282.5,-88.15 40.72,0 91.04,8.15 151.16,24.44 74.41,20.19 111.72,43.52 111.72,70 0,18.7 -7.46,35.37 -22.39,49.81 -16.84,16.3 -38.16,24.44 -64.38,24.44 -19.62,0 -48.83,-3.7 -87.84,-10.92 -39.02,-7.22 -68.44,-10.74 -88.48,-10.74 -53.74,0.37 -104.69,11.48 -152.87,33.7 -50.1,22.41 -75.05,46.67 -75.05,73.15 0,13.71 7.68,25 22.81,33.89 15.14,8.89 37.95,15 68.44,18.71 53.3,2.59 106.39,5 159.26,7.59 92.32,6.11 165.45,28.7 219.17,67.78 59.06,43.52 88.69,103.52 88.69,180.19 0,93.33 -61.19,164.07 -183.57,212.22 -93.38,36.48 -199.98,54.81 -319.8,54.81zm881.17 1.11c-91.67,0 -168.43,-22.59 -230.47,-67.78 -65.45,-47.78 -98.07,-110.74 -98.07,-188.89 0,-72.04 29.42,-146.3 88.05,-222.96 66.73,-87.59 144.13,-131.3 232.39,-131.3 43.28,0 93.81,10.19 151.8,30.37 70.35,25 105.54,53.7 105.54,86.11 0,17.78 -7.04,33.52 -21.32,47.22 -14.93,14.82 -34.32,22.22 -57.99,22.22 -17.91,0 -39.44,-8.33 -64.6,-25.19 -25.16,-16.85 -63.11,-25.19 -113.43,-25.19 -31.98,0 -66.73,27.41 -104.26,82.04 -35.82,52.78 -53.72,98.33 -53.72,136.67 0,37.96 15.78,67.96 47.54,89.63 29.85,20.56 69.5,30.93 118.54,30.93 27.93,0 62.04,-9.26 102.55,-27.78 40.3,-18.33 65.88,-27.59 76.75,-27.59 22.6,0 41.79,7.04 57.78,21.11 15.99,14.07 24.09,30.18 24.09,48.33 0,28.15 -35.4,56.48 -106.18,84.63 -63.32,25 -114.92,37.4 -155,37.4zm893.11 -425.37c-3.84,55.37 -32.62,82.96 -86.77,82.96 -52.45,0 -78.68,-23.52 -78.68,-70.56l-3.19 -54.82c-93.6,12.96 -160.76,54.82 -201.05,125.37l0.64 272.78c0,20.74 -8.1,37.78 -24.3,51.3 -16.2,13.52 -36.89,20.37 -61.83,20.37 -25.8,0 -45.84,-7.22 -59.91,-21.67 -13.44,-12.96 -20.04,-29.63 -20.04,-50l0 -355.19c0,-11.3 0.43,-27.96 1.28,-50.19 0.85,-22.22 1.28,-39.07 1.28,-50.19 0,-20.37 6.82,-37.22 20.9,-50.74 13.86,-13.52 33.68,-20.37 59.48,-20.37 46.26,0 73.77,20.56 82.51,61.85 73.77,-47.78 155.42,-71.67 245.4,-71.67 83.36,0 124.94,48.15 124.94,144.26 0,18.52 -0.22,30.56 -0.64,36.48zm233.89 -260.93c-26.65,0 -49.68,-7.78 -69.3,-23.33 -19.61,-15.56 -29.43,-34.44 -29.43,-57.04 0,-22.4 9.81,-41.29 29.43,-56.85 19.61,-15.56 42.64,-23.33 69.3,-23.33 26.65,0 49.67,7.78 69.07,23.33 19.4,15.56 29,34.44 29,56.85 0,22.59 -9.59,41.48 -29,57.04 -19.4,15.56 -42.43,23.33 -69.07,23.33zm53.09 397.59c0,20.56 0.64,53.7 2.13,99.26 1.5,45.56 2.13,78.7 2.13,99.26 0,21.11 -8.1,38.33 -24.31,51.85 -16.42,13.52 -36.88,20.37 -61.83,20.37 -25.16,0 -45.63,-6.85 -62.04,-20.37 -16.2,-13.52 -24.31,-30.74 -24.31,-51.85 0,-20.56 -0.64,-53.7 -2.13,-99.26 -1.49,-45.56 -2.13,-78.7 -2.13,-99.26 0,-32.22 2.13,-72.41 6.18,-120.93 4.05,-48.52 6.19,-88.89 6.19,-120.93 0,-21.11 8.1,-38.33 24.3,-51.85 16.42,-13.52 36.89,-20.37 62.04,-20.37 24.94,0 45.41,6.85 61.83,20.37 16.2,13.52 24.3,30.74 24.3,51.85 0,32.04 -2.13,72.41 -6.18,120.93 -4.05,48.52 -6.18,88.7 -6.18,120.93zm459.87 277.22c-58.41,0 -113.85,-8.89 -166.3,-26.48 -15.35,13.33 -34.11,20 -56.29,20 -22.39,0 -41.78,-6.48 -57.78,-19.44 -15.99,-13.15 -24.09,-29.44 -24.09,-48.89 0,-8.7 0.64,-22.04 1.92,-39.81 1.28,-17.96 1.92,-31.3 1.92,-40l0 -614.63c0,-26.11 6.61,-49.26 20.04,-69.44 16.63,-25.74 40.3,-38.52 71.21,-38.52 44.56,0 66.94,20.92 66.94,62.96 0,4.63 -0.85,12.22 -2.34,22.41 -1.49,10.37 -2.13,17.96 -2.13,22.59l0 207.78c30.91,-14.81 60.33,-25.93 88.69,-33.33 28.36,-7.41 55.65,-11.11 81.87,-11.11 97.86,0 176.96,30.93 237.3,92.78 56.29,57.78 84.43,127.96 84.43,210.37 0,84.07 -32.63,155 -98.08,213.33 -66.73,59.63 -149.03,89.44 -247.32,89.44zm23.67 -467.04c-21.75,0 -46.69,5.37 -75.05,16.3 -28.35,10.74 -60.13,27.04 -95.52,48.71 -0.43,34.44 -0.43,111.3 0,230.55 57.14,21.3 105.96,32.04 146.69,32.04 53.09,0 96.58,-15.37 130.7,-46.3 34.11,-30.93 51.17,-70 51.17,-117.04 0,-46.85 -13.86,-85.74 -41.79,-116.48 -29.21,-31.85 -68.01,-47.78 -116.19,-47.78zm735.34 467.04c-58.42,0 -113.85,-8.89 -166.3,-26.48 -15.35,13.33 -34.11,20 -56.29,20 -22.39,0 -41.78,-6.48 -57.78,-19.44 -15.99,-13.15 -24.09,-29.44 -24.09,-48.89 0,-8.7 0.64,-22.04 1.92,-39.81 1.28,-17.96 1.92,-31.3 1.92,-40l0 -614.63c0,-26.11 6.61,-49.26 20.04,-69.44 16.63,-25.74 40.3,-38.52 71.21,-38.52 44.57,0 66.94,20.92 66.94,62.96 0,4.63 -0.85,12.22 -2.34,22.41 -1.49,10.37 -2.13,17.96 -2.13,22.59l0 207.78c30.91,-14.81 60.33,-25.93 88.69,-33.33 28.36,-7.41 55.65,-11.11 81.87,-11.11 97.86,0 176.96,30.93 237.3,92.78 56.28,57.78 84.43,127.96 84.43,210.37 0,84.07 -32.62,155 -98.07,213.33 -66.73,59.63 -149.03,89.44 -247.32,89.44zm23.67 -467.04c-21.74,0 -46.69,5.37 -75.04,16.3 -28.36,10.74 -60.13,27.04 -95.52,48.71 -0.43,34.44 -0.43,111.3 0,230.55 57.14,21.3 105.96,32.04 146.69,32.04 53.09,0 96.58,-15.37 130.69,-46.3 34.11,-30.93 51.17,-70 51.17,-117.04 0,-46.85 -13.86,-85.74 -41.79,-116.48 -29.21,-31.85 -68.01,-47.78 -116.2,-47.78zm631.09 364.44c0,68.7 -28.78,103.15 -86.14,103.15 -25.16,0 -45.62,-6.85 -62.04,-20.56 -16.2,-13.89 -24.31,-31.48 -24.31,-53.15l0 -750.37c0,-20.93 8.74,-38.15 26.22,-51.48 16.63,-12.41 37.31,-18.52 61.83,-18.52 24.73,0 44.78,6.48 60.76,19.26 15.78,12.78 23.67,29.81 23.67,50.74l0 720.93zm472.89 104.81c-99.57,0 -181.01,-20.56 -244.33,-61.85 -69.93,-45.56 -104.89,-109.81 -104.89,-192.59 0,-91.67 27.72,-169.07 83.15,-232.41 61.61,-70.19 144.55,-105.19 249.24,-105.19 72.48,0 132.61,10.19 180.58,30.37 62.89,26.85 94.23,68.33 94.23,124.81 0,39.82 -25.58,75 -76.75,105.74 -23.45,14.26 -70.35,34.81 -140.71,61.85l-210.43 80.93c20.04,18.89 44.14,32.96 72.49,42.4 28.35,9.44 60.76,14.08 97.43,14.08 55.64,0 102.97,-10 141.78,-29.81 34.54,-17.78 62.26,-26.67 82.94,-26.67 43.28,0 65.02,18.33 65.02,54.81 0,41.3 -34.75,74.82 -104.25,100.93 -58.42,21.67 -120.25,32.59 -185.49,32.59zm-16.84 -460.74c-38.81,0 -71.85,11.3 -99.35,33.7 -27.5,22.41 -49.68,56.11 -66.31,100.93 47.12,-17.78 94.02,-35.37 140.72,-52.59 56.28,-22.22 101.06,-42.59 134.31,-61.48 -27.93,-13.7 -64.39,-20.56 -109.37,-20.56zm856.65 38.52c-41.36,0 -66.09,-15 -74.41,-45 -16.63,-2.41 -33.69,-3.7 -51.17,-3.7 -100.42,0 -150.52,11.85 -150.52,35.74 0,14.07 30.28,33.15 90.61,57.04 82.52,32.96 138.16,58.52 167.37,77.04 60.33,37.96 90.61,80.74 90.61,128.52 0,62.22 -33.26,109.45 -100,141.67 -53.72,25.74 -119.61,38.52 -198.06,38.52 -55.22,0 -105.96,-7.41 -151.8,-22.22 -62.47,-20.37 -93.6,-50.19 -93.6,-89.63 0,-36.11 24.73,-54.26 74.41,-54.26 19.19,0 46.91,5.19 82.94,15.74 36.25,10.56 64.17,15.74 83.79,15.74 84.64,0 127.07,-14.81 127.5,-44.44 0,-18.52 -29.42,-38.89 -88.05,-61.3 -85.92,-32.96 -140.72,-56.67 -165.02,-71.11 -58.63,-35.74 -88.06,-79.44 -88.06,-130.74 0,-72.78 44.35,-121.67 133.04,-147.04 52.02,-14.81 131.12,-22.22 237.29,-22.22 41.58,0 72.49,4.63 92.54,14.07 27.5,12.59 41.15,35.93 41.15,70 0,65 -20.26,97.59 -60.55,97.59zm-3068.04 1294.81c-13.34,0 -34.77,-11.32 -64,-33.98 -26.98,11.2 -50.65,19.66 -71.19,25.39 -20.54,5.73 -37.92,8.59 -52.31,8.59 -70.44,0 -123.5,-16.4 -158.72,-49.2 -35.22,-32.81 -52.91,-81.89 -52.91,-147.24 0,-61.31 26.08,-113.78 78.08,-157.39 52.16,-43.61 114.5,-65.35 187.05,-65.35 27.88,0 60.1,6.77 96.67,20.44 44.21,16.28 66.24,35.28 66.24,57.02 0,8.98 -3.3,16.92 -10.04,23.69 -2.85,10.16 -5.09,22.78 -6.74,38.02 -1.65,15.23 -2.4,33.07 -2.4,53.37 0,48.17 3.89,82.8 11.83,103.89 0.9,2.34 7.65,15.36 20.24,39.31 11.39,21.61 17.08,33.98 17.08,36.98 0,13.41 -5.99,24.47 -17.83,33.19 -11.84,8.85 -25.48,13.28 -41.07,13.28zm-108.81 -257.5c0,-8.07 0.6,-17.44 1.95,-27.99 1.35,-10.54 3.3,-22.39 5.84,-35.28 -5.84,-2.6 -11.09,-4.43 -15.59,-5.6 -4.49,-1.17 -8.39,-1.69 -11.69,-1.69 -39.72,0 -74.49,13.54 -104.31,40.62 -29.83,27.08 -44.82,58.45 -44.82,94.12 0,33.98 7.05,59.63 21.13,76.81 13.94,17.18 35.07,25.77 63.1,25.77 18.13,0 35.37,-2.6 51.56,-7.81 16.19,-5.21 31.47,-12.89 45.86,-23.04 -8.69,-60.53 -13.04,-105.83 -13.04,-135.91zm575.68 263.62c-36.12,0 -56.21,-15.36 -60.25,-46.21 -4.05,-26.17 -8.09,-52.46 -12.14,-78.89 -4.35,-27.98 -6.59,-54.28 -6.59,-79.02 0,-6.64 0.45,-17.97 1.5,-33.98 1.05,-16.02 1.5,-27.34 1.5,-33.85 0,-1.82 0.3,-6.38 0.9,-13.67 0.6,-7.17 0.9,-13.15 0.9,-17.71 0,-21.09 -5.85,-31.63 -17.54,-31.63 -25.18,0 -49.76,14.06 -73.89,42.05 -24.13,27.99 -43.01,63.52 -56.65,106.48 -0.6,8.59 -1.8,20.05 -3.75,34.37 -1.65,11.71 -2.4,23.17 -2.4,34.37 0,7.29 -0.9,18.35 -2.85,33.06 -1.94,14.71 -2.85,25.78 -2.85,33.07 0,14.84 -5.85,27.07 -17.39,36.84 -11.54,9.76 -26.08,14.71 -43.61,14.71 -17.68,0 -32.07,-4.81 -43.61,-14.58 -11.39,-9.76 -17.09,-22 -17.09,-36.71 0,-7.29 -0.9,-18.23 -2.55,-32.81 -1.8,-14.71 -2.69,-25.65 -2.69,-32.8 0,-24.87 2.09,-59.5 6.15,-103.76 4.04,-44.26 6.15,-78.89 6.15,-103.76 0,-7.81 -0.45,-19.39 -1.5,-34.76 -1.04,-15.36 -1.5,-26.82 -1.5,-34.37 0,-14.45 6,-26.43 17.84,-35.93 11.84,-9.5 26.37,-14.19 43.61,-14.19 38.37,0 58.91,19.92 61.45,59.88l0.45 4.3c42.71,-37.36 87.83,-56.11 135.34,-56.11 55.31,0 93.52,20.05 114.51,60.28 14.09,26.94 21.13,67.3 21.13,120.94l0 27.08c-0.3,11.71 -0.45,19.92 -0.45,24.73 0,19.92 3.15,45.44 9.44,76.68 6.29,31.24 9.44,56.76 9.44,76.28 0,14.19 -5.84,26.04 -17.53,35.54 -11.69,9.37 -26.23,14.06 -43.46,14.06zm446.19 -410.46c3.75,-86.57 8.24,-146.46 13.48,-179.52 4.95,-30.07 23.98,-45.04 57.1,-45.04 17.24,0 31.03,4.82 41.67,14.58 10.49,9.76 15.74,21.74 15.74,35.93 0,37.23 -3.3,92.69 -9.74,166.37 -6.59,73.69 -9.89,129.14 -9.89,166.37 0,90.87 3.3,151.79 10.04,182.52 0.9,4.17 1.34,7.94 1.34,11.2 0,14.19 -5.84,25.77 -17.53,34.89 -11.69,9.11 -25.33,13.67 -40.92,13.67 -21.58,0 -37.62,-8.33 -48.26,-25.13 -19.94,10.41 -40.47,17.19 -61.9,20.31 -21.29,3.26 -43.46,4.81 -66.25,4.81 -65.49,0 -120.05,-18.23 -163.37,-54.55 -44.21,-37.1 -66.24,-84.48 -66.24,-141.9 0,-68.34 22.18,-123.67 66.7,-165.72 44.51,-42.05 102.67,-63.14 174.46,-63.14 21.88,0 41.51,2.08 58.75,6.12 17.24,4.04 32.22,10.16 44.82,18.23zm-8.85 120.16c-9.59,-16.02 -22.18,-27.99 -37.77,-35.8 -15.44,-7.94 -33.87,-11.85 -55.31,-11.85 -43.31,0 -75.84,10.94 -97.42,32.68 -21.73,21.74 -32.53,54.28 -32.53,97.76 0,27.47 11.69,51.03 35.07,70.56 23.53,19.65 50.66,29.42 81.68,29.42 22.63,0 39.72,-2.34 51.41,-6.9 7.94,-2.99 21.28,-11.2 40.32,-24.34 5.09,-3.65 9.89,-7.55 14.54,-11.85 -0.6,-12.24 -0.6,-58.71 0,-139.69zm-2930.77 1035.02c-7.04,0 -24.52,-1.3 -52.44,-3.89 -2.35,50.74 -3.63,133.89 -3.63,249.63 0,19.26 -7.67,35.56 -23.02,49.44 -15.57,13.7 -35.18,20.56 -58.85,20.56 -23.67,0 -43.5,-6.85 -59.06,-20.56 -15.56,-13.89 -23.45,-30.19 -23.45,-49.44l0 -151.3c0,-56.11 4.27,-139.07 12.58,-249.07 7.89,-111.85 11.93,-195.19 12.36,-250.19 0.43,-94.07 30.92,-139.07 91.25,-135 14.07,-3.33 33.69,-5.74 58.63,-7.41 24.94,-1.67 55.43,-2.41 91.25,-2.41 81.66,0 158.2,22.96 229.83,68.89 79.52,51.3 119.39,113.89 119.39,187.78 0,92.59 -42.22,166.11 -126.86,220.74 -74.83,48.15 -164.17,72.22 -268,72.22zm31.13 -409.63c-13.22,0 -25.16,0 -35.17,0.19 -10.24,0.18 -18.98,0.74 -26.01,1.48 0,17.04 -0.21,42.41 -0.64,76.48 -0.85,40.19 -4.69,102.78 -11.72,187.78 21.32,2.78 35.39,4.26 42.43,4.26 65.03,0 118.97,-13.33 161.82,-40.19 45.84,-28.52 68.65,-66.3 68.65,-113.33 0,-30.74 -21.53,-58.15 -64.39,-82.04 -41.14,-23.15 -86.13,-34.63 -134.96,-34.63zm995.24 742.22c-18.98,0 -49.46,-16.11 -91.04,-48.33 -38.38,15.93 -72.06,27.96 -101.27,36.11 -29.21,8.15 -53.94,12.22 -74.41,12.22 -100.2,0 -175.68,-23.33 -225.78,-70 -50.1,-46.67 -75.26,-116.48 -75.26,-209.45 0,-87.22 37.09,-161.85 111.07,-223.89 74.19,-62.04 162.89,-92.96 266.08,-92.96 39.66,0 85.5,9.63 137.52,29.07 62.9,23.15 94.24,50.19 94.24,81.11 0,12.78 -4.69,24.07 -14.29,33.7 -4.05,14.44 -7.25,32.41 -9.59,54.07 -2.35,21.67 -3.41,47.04 -3.41,75.93 0,68.52 5.54,117.78 16.84,147.78 1.28,3.33 10.87,21.85 28.79,55.92 16.2,30.74 24.3,48.33 24.3,52.6 0,19.07 -8.53,34.81 -25.37,47.22 -16.85,12.59 -36.25,18.89 -58.42,18.89zm-154.79 -366.3c0,-11.48 0.85,-24.81 2.77,-39.81 1.92,-15 4.69,-31.85 8.31,-50.19 -8.31,-3.7 -15.78,-6.3 -22.17,-7.96 -6.4,-1.67 -11.94,-2.4 -16.63,-2.4 -56.5,0 -105.96,19.26 -148.39,57.78 -42.43,38.52 -63.75,83.15 -63.75,133.89 0,48.33 10.02,84.82 30.06,109.26 19.83,24.44 49.89,36.67 89.76,36.67 25.8,0 50.31,-3.7 73.34,-11.11 23.03,-7.41 44.77,-18.33 65.24,-32.78 -12.37,-86.11 -18.55,-150.56 -18.55,-193.33zm767.74 -100.19c-8.74,0 -19.19,-0.18 -31.13,-0.74 -11.72,-0.56 -22.17,-0.74 -30.91,-0.74 -17.05,0 -36.67,1.3 -59.27,4.26 7.46,146.11 11.09,241.67 11.09,286.48 0,4.63 0.21,13.33 0.64,26.3 0.42,12.78 0.64,23.15 0.64,31.11 0,83.15 -30.28,124.82 -90.61,124.82 -22.81,0 -42.64,-6.11 -59.27,-18.52 -18.33,-12.96 -27.5,-29.26 -27.5,-48.7 0,-13.15 0.64,-32.59 1.92,-58.7 1.28,-25.93 1.92,-45.56 1.92,-58.52 0,-43.89 -3.84,-137.59 -11.3,-281.11 -25.8,-1.11 -64.81,-4.07 -117.05,-8.89 -52.24,-5 -78.46,-28.33 -78.46,-70.37 0,-20.19 7.89,-37.41 23.67,-51.48 15.99,-14.07 36.25,-21.11 61.41,-21.11 15.35,0 50.74,2.22 106.17,6.48 -0.43,-11.67 -1.49,-30.74 -2.98,-57.59 -1.7,-23.15 -2.56,-41.11 -2.56,-53.7 0,-20.19 8.53,-37.04 25.59,-50.56 17.06,-13.33 37.74,-20 61.83,-20 61.61,0 92.52,45 92.52,135.19l-1.28 44.44c25.8,-3.15 46.9,-4.81 63.11,-4.81 47.75,0 80.59,2.78 98.07,8.15 33.26,10.19 49.89,32.22 49.89,66.3 0,20.56 -8.1,37.78 -24.3,51.48 -16.2,13.7 -36.89,20.56 -61.83,20.56zm602.73 0c-8.74,0 -19.19,-0.18 -31.13,-0.74 -11.73,-0.56 -22.18,-0.74 -30.92,-0.74 -17.05,0 -36.67,1.3 -59.27,4.26 7.46,146.11 11.09,241.67 11.09,286.48 0,4.63 0.21,13.33 0.64,26.3 0.42,12.78 0.64,23.15 0.64,31.11 0,83.15 -30.28,124.82 -90.61,124.82 -22.81,0 -42.64,-6.11 -59.27,-18.52 -18.33,-12.96 -27.5,-29.26 -27.5,-48.7 0,-13.15 0.64,-32.59 1.92,-58.7 1.28,-25.93 1.92,-45.56 1.92,-58.52 0,-43.89 -3.84,-137.59 -11.3,-281.11 -25.8,-1.11 -64.81,-4.07 -117.05,-8.89 -52.24,-5 -78.46,-28.33 -78.46,-70.37 0,-20.19 7.89,-37.41 23.67,-51.48 15.99,-14.07 36.25,-21.11 61.41,-21.11 15.35,0 50.74,2.22 106.17,6.48 -0.43,-11.67 -1.49,-30.74 -2.98,-57.59 -1.7,-23.15 -2.56,-41.11 -2.56,-53.7 0,-20.19 8.53,-37.04 25.59,-50.56 17.05,-13.33 37.74,-20 61.83,-20 61.62,0 92.53,45 92.53,135.19l-1.28 44.44c25.8,-3.15 46.9,-4.81 63.11,-4.81 47.75,0 80.59,2.78 98.07,8.15 33.26,10.19 49.89,32.22 49.89,66.3 0,20.56 -8.1,37.78 -24.31,51.48 -16.2,13.7 -36.88,20.56 -61.83,20.56zm476.51 461.67c-99.57,0 -181.01,-20.56 -244.33,-61.85 -69.93,-45.56 -104.9,-109.81 -104.9,-192.59 0,-91.67 27.71,-169.07 83.15,-232.41 61.61,-70.19 144.55,-105.18 249.24,-105.18 72.49,0 132.61,10.18 180.58,30.37 62.89,26.85 94.24,68.33 94.24,124.81 0,39.81 -25.58,75 -76.75,105.74 -23.45,14.26 -70.36,34.81 -140.72,61.85l-210.43 80.93c20.04,18.89 44.13,32.96 72.49,42.41 28.36,9.44 60.76,14.07 97.44,14.07 55.65,0 102.97,-10 141.78,-29.81 34.54,-17.78 62.26,-26.67 82.94,-26.67 43.28,0 65.02,18.33 65.02,54.81 0,41.3 -34.75,74.82 -104.25,100.93 -58.42,21.67 -120.25,32.59 -185.49,32.59zm-16.84 -460.74c-38.8,0 -71.85,11.29 -99.35,33.7 -27.5,22.41 -49.68,56.11 -66.31,100.93 47.12,-17.78 94.02,-35.37 140.72,-52.59 56.28,-22.22 101.06,-42.59 134.31,-61.48 -27.93,-13.71 -64.39,-20.56 -109.37,-20.56zm940.22 44.63c-3.84,55.37 -32.62,82.96 -86.77,82.96 -52.45,0 -78.67,-23.52 -78.67,-70.56l-3.2 -54.81c-93.59,12.96 -160.75,54.81 -201.05,125.37l0.64 272.78c0,20.74 -8.1,37.78 -24.31,51.3 -16.2,13.52 -36.88,20.37 -61.83,20.37 -25.8,0 -45.84,-7.22 -59.91,-21.67 -13.43,-12.96 -20.04,-29.63 -20.04,-50l0 -355.19c0,-11.3 0.43,-27.96 1.28,-50.18 0.85,-22.22 1.28,-39.07 1.28,-50.19 0,-20.37 6.83,-37.22 20.9,-50.74 13.85,-13.52 33.69,-20.37 59.48,-20.37 46.26,0 73.77,20.56 82.51,61.85 73.77,-47.78 155.43,-71.67 245.4,-71.67 83.36,0 124.93,48.15 124.93,144.26 0,18.52 -0.21,30.56 -0.64,36.48zm583.75 429.63c-51.39,0 -79.95,-21.85 -85.71,-65.74 -5.76,-37.22 -11.51,-74.63 -17.27,-112.22 -6.18,-39.81 -9.38,-77.22 -9.38,-112.41 0,-9.44 0.64,-25.56 2.13,-48.33 1.49,-22.78 2.13,-38.89 2.13,-48.15 0,-2.59 0.43,-9.07 1.28,-19.44 0.85,-10.19 1.28,-18.7 1.28,-25.19 0,-30 -8.31,-45 -24.94,-45 -35.82,0 -70.78,20 -105.11,59.81 -34.33,39.81 -61.19,90.37 -80.59,151.48 -0.85,12.22 -2.56,28.52 -5.33,48.89 -2.34,16.67 -3.41,32.96 -3.41,48.89 0,10.37 -1.28,26.11 -4.06,47.04 -2.77,20.93 -4.05,36.67 -4.05,47.04 0,21.11 -8.32,38.52 -24.73,52.41 -16.42,13.89 -37.1,20.93 -62.05,20.93 -25.15,0 -45.63,-6.85 -62.04,-20.74 -16.2,-13.89 -24.3,-31.3 -24.3,-52.22 0,-10.37 -1.28,-25.93 -3.63,-46.67 -2.56,-20.93 -3.84,-36.48 -3.84,-46.67 0,-35.37 2.99,-84.63 8.74,-147.59 5.76,-62.96 8.74,-112.22 8.74,-147.59 0,-11.11 -0.64,-27.59 -2.13,-49.44 -1.49,-21.85 -2.13,-38.15 -2.13,-48.89 0,-20.56 8.52,-37.59 25.37,-51.11 16.84,-13.52 37.52,-20.19 62.04,-20.19 54.58,0 83.79,28.33 87.41,85.19l0.64 6.11c60.76,-53.15 124.94,-79.81 192.52,-79.81 78.67,0 133.04,28.52 162.89,85.74 20.04,38.33 30.06,95.74 30.06,172.04l0 38.52c-0.43,16.67 -0.64,28.33 -0.64,35.19 0,28.33 4.48,64.63 13.43,109.07 8.95,44.44 13.43,80.74 13.43,108.52 0,20.19 -8.31,37.04 -24.94,50.56 -16.63,13.33 -37.31,20 -61.83,20zm617.01 -435.74c-41.36,0 -66.09,-15 -74.41,-45 -16.63,-2.41 -33.69,-3.7 -51.17,-3.7 -100.42,0 -150.52,11.85 -150.52,35.74 0,14.07 30.28,33.15 90.61,57.04 82.52,32.96 138.16,58.52 167.37,77.04 60.33,37.96 90.61,80.74 90.61,128.52 0,62.22 -33.26,109.44 -99.99,141.67 -53.73,25.74 -119.61,38.52 -198.07,38.52 -55.22,0 -105.96,-7.41 -151.8,-22.22 -62.47,-20.37 -93.6,-50.19 -93.6,-89.63 0,-36.11 24.73,-54.26 74.41,-54.26 19.19,0 46.91,5.19 82.94,15.74 36.24,10.56 64.17,15.74 83.78,15.74 84.64,0 127.07,-14.81 127.5,-44.44 0,-18.52 -29.43,-38.89 -88.06,-61.3 -85.92,-32.96 -140.72,-56.67 -165.02,-71.11 -58.63,-35.74 -88.05,-79.44 -88.05,-130.74 0,-72.78 44.35,-121.67 133.04,-147.04 52.02,-14.81 131.12,-22.22 237.29,-22.22 41.57,0 72.49,4.63 92.53,14.07 27.51,12.59 41.15,35.93 41.15,70 0,65 -20.26,97.59 -60.55,97.59z"/>
   <path class="fil7 str4" d="M1373.89 2514.1c-105.75,0 -189.11,-20.37 -249.88,-61.29 -51.17,-34.07 -76.75,-73.34 -76.75,-117.78 0,-22.78 7.89,-41.67 23.67,-56.67 15.99,-15 37.74,-22.59 65.67,-22.59 37.52,0 65.03,16.67 82.51,50 23.67,44.44 77.39,66.67 161.19,66.67 71.43,0 140.93,-13.52 207.87,-40.74 69.5,-27.78 104.25,-58.33 104.25,-91.67 0,-45.56 -21.74,-75.56 -65.02,-90 -30.7,-10.56 -92.53,-16.67 -185.48,-18.52 -72.07,-1.48 -136.45,-13.15 -193.59,-35.19 -76.97,-30.18 -114.91,-73.15 -113.63,-129.26 1.28,-70.37 44.56,-135.19 129.84,-193.89 85.49,-58.7 179.51,-88.15 282.5,-88.15 40.72,0 91.04,8.15 151.16,24.44 74.41,20.19 111.72,43.52 111.72,70 0,18.7 -7.46,35.37 -22.39,49.81 -16.84,16.3 -38.16,24.44 -64.38,24.44 -19.62,0 -48.83,-3.7 -87.84,-10.92 -39.02,-7.22 -68.44,-10.74 -88.48,-10.74 -53.74,0.37 -104.69,11.48 -152.87,33.7 -50.1,22.41 -75.05,46.67 -75.05,73.15 0,13.71 7.68,25 22.81,33.89 15.14,8.89 37.95,15 68.44,18.71 53.3,2.59 106.39,5 159.26,7.59 92.32,6.11 165.45,28.7 219.17,67.78 59.06,43.52 88.69,103.52 88.69,180.19 0,93.33 -61.19,164.07 -183.57,212.22 -93.38,36.48 -199.98,54.81 -319.8,54.81zm881.17 1.11c-91.67,0 -168.43,-22.59 -230.47,-67.78 -65.45,-47.78 -98.07,-110.74 -98.07,-188.89 0,-72.04 29.42,-146.3 88.05,-222.96 66.73,-87.59 144.13,-131.3 232.39,-131.3 43.28,0 93.81,10.19 151.8,30.37 70.35,25 105.54,53.7 105.54,86.11 0,17.78 -7.04,33.52 -21.32,47.22 -14.93,14.82 -34.32,22.22 -57.99,22.22 -17.91,0 -39.44,-8.33 -64.6,-25.19 -25.16,-16.85 -63.11,-25.19 -113.43,-25.19 -31.98,0 -66.73,27.41 -104.26,82.04 -35.82,52.78 -53.72,98.33 -53.72,136.67 0,37.96 15.78,67.96 47.54,89.63 29.85,20.56 69.5,30.93 118.54,30.93 27.93,0 62.04,-9.26 102.55,-27.78 40.3,-18.33 65.88,-27.59 76.75,-27.59 22.6,0 41.79,7.04 57.78,21.11 15.99,14.07 24.09,30.18 24.09,48.33 0,28.15 -35.4,56.48 -106.18,84.63 -63.32,25 -114.92,37.4 -155,37.4zm893.11 -425.37c-3.84,55.37 -32.62,82.96 -86.77,82.96 -52.45,0 -78.68,-23.52 -78.68,-70.56l-3.19 -54.82c-93.6,12.96 -160.76,54.82 -201.05,125.37l0.64 272.78c0,20.74 -8.1,37.78 -24.3,51.3 -16.2,13.52 -36.89,20.37 -61.83,20.37 -25.8,0 -45.84,-7.22 -59.91,-21.67 -13.44,-12.96 -20.04,-29.63 -20.04,-50l0 -355.19c0,-11.3 0.43,-27.96 1.28,-50.19 0.85,-22.22 1.28,-39.07 1.28,-50.19 0,-20.37 6.82,-37.22 20.9,-50.74 13.86,-13.52 33.68,-20.37 59.48,-20.37 46.26,0 73.77,20.56 82.51,61.85 73.77,-47.78 155.42,-71.67 245.4,-71.67 83.36,0 124.94,48.15 124.94,144.26 0,18.52 -0.22,30.56 -0.64,36.48zm233.89 -260.93c-26.65,0 -49.68,-7.78 -69.3,-23.33 -19.61,-15.56 -29.43,-34.44 -29.43,-57.04 0,-22.4 9.81,-41.29 29.43,-56.85 19.61,-15.56 42.64,-23.33 69.3,-23.33 26.65,0 49.67,7.78 69.07,23.33 19.4,15.56 29,34.44 29,56.85 0,22.59 -9.59,41.48 -29,57.04 -19.4,15.56 -42.43,23.33 -69.07,23.33zm53.09 397.59c0,20.56 0.64,53.7 2.13,99.26 1.5,45.56 2.13,78.7 2.13,99.26 0,21.11 -8.1,38.33 -24.31,51.85 -16.42,13.52 -36.88,20.37 -61.83,20.37 -25.16,0 -45.63,-6.85 -62.04,-20.37 -16.2,-13.52 -24.31,-30.74 -24.31,-51.85 0,-20.56 -0.64,-53.7 -2.13,-99.26 -1.49,-45.56 -2.13,-78.7 -2.13,-99.26 0,-32.22 2.13,-72.41 6.18,-120.93 4.05,-48.52 6.19,-88.89 6.19,-120.93 0,-21.11 8.1,-38.33 24.3,-51.85 16.42,-13.52 36.89,-20.37 62.04,-20.37 24.94,0 45.41,6.85 61.83,20.37 16.2,13.52 24.3,30.74 24.3,51.85 0,32.04 -2.13,72.41 -6.18,120.93 -4.05,48.52 -6.18,88.7 -6.18,120.93zm459.87 277.22c-58.41,0 -113.85,-8.89 -166.3,-26.48 -15.35,13.33 -34.11,20 -56.29,20 -22.39,0 -41.78,-6.48 -57.78,-19.44 -15.99,-13.15 -24.09,-29.44 -24.09,-48.89 0,-8.7 0.64,-22.04 1.92,-39.81 1.28,-17.96 1.92,-31.3 1.92,-40l0 -614.63c0,-26.11 6.61,-49.26 20.04,-69.44 16.63,-25.74 40.3,-38.52 71.21,-38.52 44.56,0 66.94,20.92 66.94,62.96 0,4.63 -0.85,12.22 -2.34,22.41 -1.49,10.37 -2.13,17.96 -2.13,22.59l0 207.78c30.91,-14.81 60.33,-25.93 88.69,-33.33 28.36,-7.41 55.65,-11.11 81.87,-11.11 97.86,0 176.96,30.93 237.3,92.78 56.29,57.78 84.43,127.96 84.43,210.37 0,84.07 -32.63,155 -98.08,213.33 -66.73,59.63 -149.03,89.44 -247.32,89.44zm23.67 -467.04c-21.75,0 -46.69,5.37 -75.05,16.3 -28.35,10.74 -60.13,27.04 -95.52,48.71 -0.43,34.44 -0.43,111.3 0,230.55 57.14,21.3 105.96,32.04 146.69,32.04 53.09,0 96.58,-15.37 130.7,-46.3 34.11,-30.93 51.17,-70 51.17,-117.04 0,-46.85 -13.86,-85.74 -41.79,-116.48 -29.21,-31.85 -68.01,-47.78 -116.19,-47.78zm735.34 467.04c-58.42,0 -113.85,-8.89 -166.3,-26.48 -15.35,13.33 -34.11,20 -56.29,20 -22.39,0 -41.78,-6.48 -57.78,-19.44 -15.99,-13.15 -24.09,-29.44 -24.09,-48.89 0,-8.7 0.64,-22.04 1.92,-39.81 1.28,-17.96 1.92,-31.3 1.92,-40l0 -614.63c0,-26.11 6.61,-49.26 20.04,-69.44 16.63,-25.74 40.3,-38.52 71.21,-38.52 44.57,0 66.94,20.92 66.94,62.96 0,4.63 -0.85,12.22 -2.34,22.41 -1.49,10.37 -2.13,17.96 -2.13,22.59l0 207.78c30.91,-14.81 60.33,-25.93 88.69,-33.33 28.36,-7.41 55.65,-11.11 81.87,-11.11 97.86,0 176.96,30.93 237.3,92.78 56.28,57.78 84.43,127.96 84.43,210.37 0,84.07 -32.62,155 -98.07,213.33 -66.73,59.63 -149.03,89.44 -247.32,89.44zm23.67 -467.04c-21.74,0 -46.69,5.37 -75.04,16.3 -28.36,10.74 -60.13,27.04 -95.52,48.71 -0.43,34.44 -0.43,111.3 0,230.55 57.14,21.3 105.96,32.04 146.69,32.04 53.09,0 96.58,-15.37 130.69,-46.3 34.11,-30.93 51.17,-70 51.17,-117.04 0,-46.85 -13.86,-85.74 -41.79,-116.48 -29.21,-31.85 -68.01,-47.78 -116.2,-47.78zm631.09 364.44c0,68.7 -28.78,103.15 -86.14,103.15 -25.16,0 -45.62,-6.85 -62.04,-20.56 -16.2,-13.89 -24.31,-31.48 -24.31,-53.15l0 -750.37c0,-20.93 8.74,-38.15 26.22,-51.48 16.63,-12.41 37.31,-18.52 61.83,-18.52 24.73,0 44.78,6.48 60.76,19.26 15.78,12.78 23.67,29.81 23.67,50.74l0 720.93zm472.89 104.81c-99.57,0 -181.01,-20.56 -244.33,-61.85 -69.93,-45.56 -104.89,-109.81 -104.89,-192.59 0,-91.67 27.72,-169.07 83.15,-232.41 61.61,-70.19 144.55,-105.19 249.24,-105.19 72.48,0 132.61,10.19 180.58,30.37 62.89,26.85 94.23,68.33 94.23,124.81 0,39.82 -25.58,75 -76.75,105.74 -23.45,14.26 -70.35,34.81 -140.71,61.85l-210.43 80.93c20.04,18.89 44.14,32.96 72.49,42.4 28.35,9.44 60.76,14.08 97.43,14.08 55.64,0 102.97,-10 141.78,-29.81 34.54,-17.78 62.26,-26.67 82.94,-26.67 43.28,0 65.02,18.33 65.02,54.81 0,41.3 -34.75,74.82 -104.25,100.93 -58.42,21.67 -120.25,32.59 -185.49,32.59zm-16.84 -460.74c-38.81,0 -71.85,11.3 -99.35,33.7 -27.5,22.41 -49.68,56.11 -66.31,100.93 47.12,-17.78 94.02,-35.37 140.72,-52.59 56.28,-22.22 101.06,-42.59 134.31,-61.48 -27.93,-13.7 -64.39,-20.56 -109.37,-20.56zm856.65 38.52c-41.36,0 -66.09,-15 -74.41,-45 -16.63,-2.41 -33.69,-3.7 -51.17,-3.7 -100.42,0 -150.52,11.85 -150.52,35.74 0,14.07 30.28,33.15 90.61,57.04 82.52,32.96 138.16,58.52 167.37,77.04 60.33,37.96 90.61,80.74 90.61,128.52 0,62.22 -33.26,109.45 -100,141.67 -53.72,25.74 -119.61,38.52 -198.06,38.52 -55.22,0 -105.96,-7.41 -151.8,-22.22 -62.47,-20.37 -93.6,-50.19 -93.6,-89.63 0,-36.11 24.73,-54.26 74.41,-54.26 19.19,0 46.91,5.19 82.94,15.74 36.25,10.56 64.17,15.74 83.79,15.74 84.64,0 127.07,-14.81 127.5,-44.44 0,-18.52 -29.42,-38.89 -88.05,-61.3 -85.92,-32.96 -140.72,-56.67 -165.02,-71.11 -58.63,-35.74 -88.06,-79.44 -88.06,-130.74 0,-72.78 44.35,-121.67 133.04,-147.04 52.02,-14.81 131.12,-22.22 237.29,-22.22 41.58,0 72.49,4.63 92.54,14.07 27.5,12.59 41.15,35.93 41.15,70 0,65 -20.26,97.59 -60.55,97.59zm-3068.04 1294.81c-13.34,0 -34.77,-11.32 -64,-33.98 -26.98,11.2 -50.65,19.66 -71.19,25.39 -20.54,5.73 -37.92,8.59 -52.31,8.59 -70.44,0 -123.5,-16.4 -158.72,-49.2 -35.22,-32.81 -52.91,-81.89 -52.91,-147.24 0,-61.31 26.08,-113.78 78.08,-157.39 52.16,-43.61 114.5,-65.35 187.05,-65.35 27.88,0 60.1,6.77 96.67,20.44 44.21,16.28 66.24,35.28 66.24,57.02 0,8.98 -3.3,16.92 -10.04,23.69 -2.85,10.16 -5.09,22.78 -6.74,38.02 -1.65,15.23 -2.4,33.07 -2.4,53.37 0,48.17 3.89,82.8 11.83,103.89 0.9,2.34 7.65,15.36 20.24,39.31 11.39,21.61 17.08,33.98 17.08,36.98 0,13.41 -5.99,24.47 -17.83,33.19 -11.84,8.85 -25.48,13.28 -41.07,13.28zm-108.81 -257.5c0,-8.07 0.6,-17.44 1.95,-27.99 1.35,-10.54 3.3,-22.39 5.84,-35.28 -5.84,-2.6 -11.09,-4.43 -15.59,-5.6 -4.49,-1.17 -8.39,-1.69 -11.69,-1.69 -39.72,0 -74.49,13.54 -104.31,40.62 -29.83,27.08 -44.82,58.45 -44.82,94.12 0,33.98 7.05,59.63 21.13,76.81 13.94,17.18 35.07,25.77 63.1,25.77 18.13,0 35.37,-2.6 51.56,-7.81 16.19,-5.21 31.47,-12.89 45.86,-23.04 -8.69,-60.53 -13.04,-105.83 -13.04,-135.91zm575.68 263.62c-36.12,0 -56.21,-15.36 -60.25,-46.21 -4.05,-26.17 -8.09,-52.46 -12.14,-78.89 -4.35,-27.98 -6.59,-54.28 -6.59,-79.02 0,-6.64 0.45,-17.97 1.5,-33.98 1.05,-16.02 1.5,-27.34 1.5,-33.85 0,-1.82 0.3,-6.38 0.9,-13.67 0.6,-7.17 0.9,-13.15 0.9,-17.71 0,-21.09 -5.85,-31.63 -17.54,-31.63 -25.18,0 -49.76,14.06 -73.89,42.05 -24.13,27.99 -43.01,63.52 -56.65,106.48 -0.6,8.59 -1.8,20.05 -3.75,34.37 -1.65,11.71 -2.4,23.17 -2.4,34.37 0,7.29 -0.9,18.35 -2.85,33.06 -1.94,14.71 -2.85,25.78 -2.85,33.07 0,14.84 -5.85,27.07 -17.39,36.84 -11.54,9.76 -26.08,14.71 -43.61,14.71 -17.68,0 -32.07,-4.81 -43.61,-14.58 -11.39,-9.76 -17.09,-22 -17.09,-36.71 0,-7.29 -0.9,-18.23 -2.55,-32.81 -1.8,-14.71 -2.69,-25.65 -2.69,-32.8 0,-24.87 2.09,-59.5 6.15,-103.76 4.04,-44.26 6.15,-78.89 6.15,-103.76 0,-7.81 -0.45,-19.39 -1.5,-34.76 -1.04,-15.36 -1.5,-26.82 -1.5,-34.37 0,-14.45 6,-26.43 17.84,-35.93 11.84,-9.5 26.37,-14.19 43.61,-14.19 38.37,0 58.91,19.92 61.45,59.88l0.45 4.3c42.71,-37.36 87.83,-56.11 135.34,-56.11 55.31,0 93.52,20.05 114.51,60.28 14.09,26.94 21.13,67.3 21.13,120.94l0 27.08c-0.3,11.71 -0.45,19.92 -0.45,24.73 0,19.92 3.15,45.44 9.44,76.68 6.29,31.24 9.44,56.76 9.44,76.28 0,14.19 -5.84,26.04 -17.53,35.54 -11.69,9.37 -26.23,14.06 -43.46,14.06zm446.19 -410.46c3.75,-86.57 8.24,-146.46 13.48,-179.52 4.95,-30.07 23.98,-45.04 57.1,-45.04 17.24,0 31.03,4.82 41.67,14.58 10.49,9.76 15.74,21.74 15.74,35.93 0,37.23 -3.3,92.69 -9.74,166.37 -6.59,73.69 -9.89,129.14 -9.89,166.37 0,90.87 3.3,151.79 10.04,182.52 0.9,4.17 1.34,7.94 1.34,11.2 0,14.19 -5.84,25.77 -17.53,34.89 -11.69,9.11 -25.33,13.67 -40.92,13.67 -21.58,0 -37.62,-8.33 -48.26,-25.13 -19.94,10.41 -40.47,17.19 -61.9,20.31 -21.29,3.26 -43.46,4.81 -66.25,4.81 -65.49,0 -120.05,-18.23 -163.37,-54.55 -44.21,-37.1 -66.24,-84.48 -66.24,-141.9 0,-68.34 22.18,-123.67 66.7,-165.72 44.51,-42.05 102.67,-63.14 174.46,-63.14 21.88,0 41.51,2.08 58.75,6.12 17.24,4.04 32.22,10.16 44.82,18.23zm-8.85 120.16c-9.59,-16.02 -22.18,-27.99 -37.77,-35.8 -15.44,-7.94 -33.87,-11.85 -55.31,-11.85 -43.31,0 -75.84,10.94 -97.42,32.68 -21.73,21.74 -32.53,54.28 -32.53,97.76 0,27.47 11.69,51.03 35.07,70.56 23.53,19.65 50.66,29.42 81.68,29.42 22.63,0 39.72,-2.34 51.41,-6.9 7.94,-2.99 21.28,-11.2 40.32,-24.34 5.09,-3.65 9.89,-7.55 14.54,-11.85 -0.6,-12.24 -0.6,-58.71 0,-139.69zm-2930.77 1035.02c-7.04,0 -24.52,-1.3 -52.44,-3.89 -2.35,50.74 -3.63,133.89 -3.63,249.63 0,19.26 -7.67,35.56 -23.02,49.44 -15.57,13.7 -35.18,20.56 -58.85,20.56 -23.67,0 -43.5,-6.85 -59.06,-20.56 -15.56,-13.89 -23.45,-30.19 -23.45,-49.44l0 -151.3c0,-56.11 4.27,-139.07 12.58,-249.07 7.89,-111.85 11.93,-195.19 12.36,-250.19 0.43,-94.07 30.92,-139.07 91.25,-135 14.07,-3.33 33.69,-5.74 58.63,-7.41 24.94,-1.67 55.43,-2.41 91.25,-2.41 81.66,0 158.2,22.96 229.83,68.89 79.52,51.3 119.39,113.89 119.39,187.78 0,92.59 -42.22,166.11 -126.86,220.74 -74.83,48.15 -164.17,72.22 -268,72.22zm31.13 -409.63c-13.22,0 -25.16,0 -35.17,0.19 -10.24,0.18 -18.98,0.74 -26.01,1.48 0,17.04 -0.21,42.41 -0.64,76.48 -0.85,40.19 -4.69,102.78 -11.72,187.78 21.32,2.78 35.39,4.26 42.43,4.26 65.03,0 118.97,-13.33 161.82,-40.19 45.84,-28.52 68.65,-66.3 68.65,-113.33 0,-30.74 -21.53,-58.15 -64.39,-82.04 -41.14,-23.15 -86.13,-34.63 -134.96,-34.63zm995.24 742.22c-18.98,0 -49.46,-16.11 -91.04,-48.33 -38.38,15.93 -72.06,27.96 -101.27,36.11 -29.21,8.15 -53.94,12.22 -74.41,12.22 -100.2,0 -175.68,-23.33 -225.78,-70 -50.1,-46.67 -75.26,-116.48 -75.26,-209.45 0,-87.22 37.09,-161.85 111.07,-223.89 74.19,-62.04 162.89,-92.96 266.08,-92.96 39.66,0 85.5,9.63 137.52,29.07 62.9,23.15 94.24,50.19 94.24,81.11 0,12.78 -4.69,24.07 -14.29,33.7 -4.05,14.44 -7.25,32.41 -9.59,54.07 -2.35,21.67 -3.41,47.04 -3.41,75.93 0,68.52 5.54,117.78 16.84,147.78 1.28,3.33 10.87,21.85 28.79,55.92 16.2,30.74 24.3,48.33 24.3,52.6 0,19.07 -8.53,34.81 -25.37,47.22 -16.85,12.59 -36.25,18.89 -58.42,18.89zm-154.79 -366.3c0,-11.48 0.85,-24.81 2.77,-39.81 1.92,-15 4.69,-31.85 8.31,-50.19 -8.31,-3.7 -15.78,-6.3 -22.17,-7.96 -6.4,-1.67 -11.94,-2.4 -16.63,-2.4 -56.5,0 -105.96,19.26 -148.39,57.78 -42.43,38.52 -63.75,83.15 -63.75,133.89 0,48.33 10.02,84.82 30.06,109.26 19.83,24.44 49.89,36.67 89.76,36.67 25.8,0 50.31,-3.7 73.34,-11.11 23.03,-7.41 44.77,-18.33 65.24,-32.78 -12.37,-86.11 -18.55,-150.56 -18.55,-193.33zm767.74 -100.19c-8.74,0 -19.19,-0.18 -31.13,-0.74 -11.72,-0.56 -22.17,-0.74 -30.91,-0.74 -17.05,0 -36.67,1.3 -59.27,4.26 7.46,146.11 11.09,241.67 11.09,286.48 0,4.63 0.21,13.33 0.64,26.3 0.42,12.78 0.64,23.15 0.64,31.11 0,83.15 -30.28,124.82 -90.61,124.82 -22.81,0 -42.64,-6.11 -59.27,-18.52 -18.33,-12.96 -27.5,-29.26 -27.5,-48.7 0,-13.15 0.64,-32.59 1.92,-58.7 1.28,-25.93 1.92,-45.56 1.92,-58.52 0,-43.89 -3.84,-137.59 -11.3,-281.11 -25.8,-1.11 -64.81,-4.07 -117.05,-8.89 -52.24,-5 -78.46,-28.33 -78.46,-70.37 0,-20.19 7.89,-37.41 23.67,-51.48 15.99,-14.07 36.25,-21.11 61.41,-21.11 15.35,0 50.74,2.22 106.17,6.48 -0.43,-11.67 -1.49,-30.74 -2.98,-57.59 -1.7,-23.15 -2.56,-41.11 -2.56,-53.7 0,-20.19 8.53,-37.04 25.59,-50.56 17.06,-13.33 37.74,-20 61.83,-20 61.61,0 92.52,45 92.52,135.19l-1.28 44.44c25.8,-3.15 46.9,-4.81 63.11,-4.81 47.75,0 80.59,2.78 98.07,8.15 33.26,10.19 49.89,32.22 49.89,66.3 0,20.56 -8.1,37.78 -24.3,51.48 -16.2,13.7 -36.89,20.56 -61.83,20.56zm602.73 0c-8.74,0 -19.19,-0.18 -31.13,-0.74 -11.73,-0.56 -22.18,-0.74 -30.92,-0.74 -17.05,0 -36.67,1.3 -59.27,4.26 7.46,146.11 11.09,241.67 11.09,286.48 0,4.63 0.21,13.33 0.64,26.3 0.42,12.78 0.64,23.15 0.64,31.11 0,83.15 -30.28,124.82 -90.61,124.82 -22.81,0 -42.64,-6.11 -59.27,-18.52 -18.33,-12.96 -27.5,-29.26 -27.5,-48.7 0,-13.15 0.64,-32.59 1.92,-58.7 1.28,-25.93 1.92,-45.56 1.92,-58.52 0,-43.89 -3.84,-137.59 -11.3,-281.11 -25.8,-1.11 -64.81,-4.07 -117.05,-8.89 -52.24,-5 -78.46,-28.33 -78.46,-70.37 0,-20.19 7.89,-37.41 23.67,-51.48 15.99,-14.07 36.25,-21.11 61.41,-21.11 15.35,0 50.74,2.22 106.17,6.48 -0.43,-11.67 -1.49,-30.74 -2.98,-57.59 -1.7,-23.15 -2.56,-41.11 -2.56,-53.7 0,-20.19 8.53,-37.04 25.59,-50.56 17.05,-13.33 37.74,-20 61.83,-20 61.62,0 92.53,45 92.53,135.19l-1.28 44.44c25.8,-3.15 46.9,-4.81 63.11,-4.81 47.75,0 80.59,2.78 98.07,8.15 33.26,10.19 49.89,32.22 49.89,66.3 0,20.56 -8.1,37.78 -24.31,51.48 -16.2,13.7 -36.88,20.56 -61.83,20.56zm476.51 461.67c-99.57,0 -181.01,-20.56 -244.33,-61.85 -69.93,-45.56 -104.9,-109.81 -104.9,-192.59 0,-91.67 27.71,-169.07 83.15,-232.41 61.61,-70.19 144.55,-105.18 249.24,-105.18 72.49,0 132.61,10.18 180.58,30.37 62.89,26.85 94.24,68.33 94.24,124.81 0,39.81 -25.58,75 -76.75,105.74 -23.45,14.26 -70.36,34.81 -140.72,61.85l-210.43 80.93c20.04,18.89 44.13,32.96 72.49,42.41 28.36,9.44 60.76,14.07 97.44,14.07 55.65,0 102.97,-10 141.78,-29.81 34.54,-17.78 62.26,-26.67 82.94,-26.67 43.28,0 65.02,18.33 65.02,54.81 0,41.3 -34.75,74.82 -104.25,100.93 -58.42,21.67 -120.25,32.59 -185.49,32.59zm-16.84 -460.74c-38.8,0 -71.85,11.29 -99.35,33.7 -27.5,22.41 -49.68,56.11 -66.31,100.93 47.12,-17.78 94.02,-35.37 140.72,-52.59 56.28,-22.22 101.06,-42.59 134.31,-61.48 -27.93,-13.71 -64.39,-20.56 -109.37,-20.56zm940.22 44.63c-3.84,55.37 -32.62,82.96 -86.77,82.96 -52.45,0 -78.67,-23.52 -78.67,-70.56l-3.2 -54.81c-93.59,12.96 -160.75,54.81 -201.05,125.37l0.64 272.78c0,20.74 -8.1,37.78 -24.31,51.3 -16.2,13.52 -36.88,20.37 -61.83,20.37 -25.8,0 -45.84,-7.22 -59.91,-21.67 -13.43,-12.96 -20.04,-29.63 -20.04,-50l0 -355.19c0,-11.3 0.43,-27.96 1.28,-50.18 0.85,-22.22 1.28,-39.07 1.28,-50.19 0,-20.37 6.83,-37.22 20.9,-50.74 13.85,-13.52 33.69,-20.37 59.48,-20.37 46.26,0 73.77,20.56 82.51,61.85 73.77,-47.78 155.43,-71.67 245.4,-71.67 83.36,0 124.93,48.15 124.93,144.26 0,18.52 -0.21,30.56 -0.64,36.48zm583.75 429.63c-51.39,0 -79.95,-21.85 -85.71,-65.74 -5.76,-37.22 -11.51,-74.63 -17.27,-112.22 -6.18,-39.81 -9.38,-77.22 -9.38,-112.41 0,-9.44 0.64,-25.56 2.13,-48.33 1.49,-22.78 2.13,-38.89 2.13,-48.15 0,-2.59 0.43,-9.07 1.28,-19.44 0.85,-10.19 1.28,-18.7 1.28,-25.19 0,-30 -8.31,-45 -24.94,-45 -35.82,0 -70.78,20 -105.11,59.81 -34.33,39.81 -61.19,90.37 -80.59,151.48 -0.85,12.22 -2.56,28.52 -5.33,48.89 -2.34,16.67 -3.41,32.96 -3.41,48.89 0,10.37 -1.28,26.11 -4.06,47.04 -2.77,20.93 -4.05,36.67 -4.05,47.04 0,21.11 -8.32,38.52 -24.73,52.41 -16.42,13.89 -37.1,20.93 -62.05,20.93 -25.15,0 -45.63,-6.85 -62.04,-20.74 -16.2,-13.89 -24.3,-31.3 -24.3,-52.22 0,-10.37 -1.28,-25.93 -3.63,-46.67 -2.56,-20.93 -3.84,-36.48 -3.84,-46.67 0,-35.37 2.99,-84.63 8.74,-147.59 5.76,-62.96 8.74,-112.22 8.74,-147.59 0,-11.11 -0.64,-27.59 -2.13,-49.44 -1.49,-21.85 -2.13,-38.15 -2.13,-48.89 0,-20.56 8.52,-37.59 25.37,-51.11 16.84,-13.52 37.52,-20.19 62.04,-20.19 54.58,0 83.79,28.33 87.41,85.19l0.64 6.11c60.76,-53.15 124.94,-79.81 192.52,-79.81 78.67,0 133.04,28.52 162.89,85.74 20.04,38.33 30.06,95.74 30.06,172.04l0 38.52c-0.43,16.67 -0.64,28.33 -0.64,35.19 0,28.33 4.48,64.63 13.43,109.07 8.95,44.44 13.43,80.74 13.43,108.52 0,20.19 -8.31,37.04 -24.94,50.56 -16.63,13.33 -37.31,20 -61.83,20zm617.01 -435.74c-41.36,0 -66.09,-15 -74.41,-45 -16.63,-2.41 -33.69,-3.7 -51.17,-3.7 -100.42,0 -150.52,11.85 -150.52,35.74 0,14.07 30.28,33.15 90.61,57.04 82.52,32.96 138.16,58.52 167.37,77.04 60.33,37.96 90.61,80.74 90.61,128.52 0,62.22 -33.26,109.44 -99.99,141.67 -53.73,25.74 -119.61,38.52 -198.07,38.52 -55.22,0 -105.96,-7.41 -151.8,-22.22 -62.47,-20.37 -93.6,-50.19 -93.6,-89.63 0,-36.11 24.73,-54.26 74.41,-54.26 19.19,0 46.91,5.19 82.94,15.74 36.24,10.56 64.17,15.74 83.78,15.74 84.64,0 127.07,-14.81 127.5,-44.44 0,-18.52 -29.43,-38.89 -88.06,-61.3 -85.92,-32.96 -140.72,-56.67 -165.02,-71.11 -58.63,-35.74 -88.05,-79.44 -88.05,-130.74 0,-72.78 44.35,-121.67 133.04,-147.04 52.02,-14.81 131.12,-22.22 237.29,-22.22 41.57,0 72.49,4.63 92.53,14.07 27.51,12.59 41.15,35.93 41.15,70 0,65 -20.26,97.59 -60.55,97.59z"/>
   <path class="fil5 str5" d="M1233.04 5084.82c19.49,-1.68 33.4,-2.55 41.81,-2.55 27.15,0 40.76,9.1 40.76,27.3 0,18.71 -14.43,27.67 -43.37,26.86 -9.15,-0.29 -23.06,0.37 -41.66,1.9 -0.59,15.07 -0.74,34.29 -0.44,57.58 0.59,33.56 0.89,52.72 0.89,57.44 0,25.99 -1.71,46.59 -5.06,61.81 -3.35,15.22 -12.87,22.86 -28.72,22.86 -8.11,0 -15.25,-2.55 -21.27,-7.72 -6.03,-5.1 -9,-11.58 -9,-19.37 0,-1.89 0.15,-3.64 0.44,-5.31 3.5,-20.39 5.2,-39.54 5.2,-57.44l0 -106.66c-2.6,0.15 -7.44,0.73 -14.35,1.67 -5.5,0.73 -9.74,1.09 -12.65,1.09 -8.85,0 -16.22,-2.54 -22.02,-7.57 -5.8,-5.02 -8.7,-11.87 -8.7,-20.38 0,-13.18 7.14,-21.92 21.35,-26 6.4,-1.89 19.04,-3.06 38.09,-3.64 0.15,-2.55 1.12,-10.63 2.83,-24.1 4.09,-31.74 12.87,-55.33 26.41,-70.84 16.81,-19.3 42.7,-28.98 77.59,-28.98 26.56,0 39.87,9.32 39.87,27.96 0,18.49 -12.35,27.74 -37.05,27.74 -17.56,0 -30.35,6.04 -38.31,18.13 -5.95,8.96 -9.97,22.94 -11.98,42.01l-0.67 6.19zm213.13 231.66c-26.85,0 -49.99,-9.03 -69.33,-27.08 -21.2,-19.8 -32.28,-46.16 -33.33,-79.14 -1.04,-31.45 7.74,-59.41 26.41,-84.02 22.02,-29.05 52.74,-43.54 92.17,-43.54 29.01,0 52.15,11.35 69.26,34.15 15.4,20.46 23.13,45.87 23.13,76.15 0,32.98 -9,61.15 -27,84.45 -20.23,25.99 -47.31,39.02 -81.31,39.02zm13.09 -177.5c-17.85,-0.15 -31.98,7.79 -42.25,23.89 -8.7,13.54 -13.09,29.26 -13.09,47.39 0,17.04 4.91,30.14 14.81,39.24 7.89,7.21 17.04,10.85 27.45,10.85 12.65,0 23.65,-4.22 32.95,-12.59 10.56,-9.83 16.22,-23.08 16.96,-39.9 1.86,-45.8 -10.41,-68.73 -36.82,-68.88zm314.37 11.14c-1.34,21.77 -11.38,32.62 -30.28,32.62 -18.3,0 -27.45,-9.25 -27.45,-27.74l-1.11 -21.55c-32.66,5.09 -56.09,21.55 -70.15,49.29l0.22 107.24c0,8.15 -2.83,14.85 -8.48,20.17 -5.66,5.31 -12.87,8.01 -21.57,8.01 -9,0 -15.99,-2.84 -20.9,-8.52 -4.69,-5.09 -6.99,-11.65 -6.99,-19.66l0 -139.64c0,-4.44 0.15,-11 0.44,-19.73 0.3,-8.74 0.44,-15.36 0.44,-19.73 0,-8.01 2.38,-14.63 7.29,-19.95 4.84,-5.31 11.75,-8.01 20.76,-8.01 16.14,0 25.74,8.08 28.79,24.32 25.74,-18.78 54.23,-28.18 85.62,-28.18 29.09,0 43.59,18.93 43.59,56.72 0,7.28 -0.07,12.01 -0.22,14.34zm293.17 34.73c-2.45,0 -8.56,-0.51 -18.3,-1.53 -0.82,19.95 -1.27,52.64 -1.27,98.14 0,7.57 -2.67,13.98 -8.03,19.44 -5.43,5.39 -12.28,8.08 -20.53,8.08 -8.26,0 -15.17,-2.7 -20.61,-8.08 -5.43,-5.46 -8.18,-11.87 -8.18,-19.44l0 -59.48c0,-22.06 1.49,-54.68 4.39,-97.92 2.75,-43.98 4.17,-76.74 4.31,-98.36 0.15,-36.98 10.78,-54.67 31.83,-53.07 4.91,-1.31 11.75,-2.26 20.46,-2.91 8.7,-0.66 19.34,-0.95 31.84,-0.95 28.49,0 55.19,9.03 80.19,27.08 27.75,20.17 41.66,44.78 41.66,73.82 0,36.41 -14.72,65.31 -44.26,86.79 -26.11,18.93 -57.28,28.39 -93.51,28.39zm10.87 -161.04c-4.61,0 -8.78,0 -12.28,0.07 -3.57,0.07 -6.62,0.29 -9.07,0.58 0,6.7 -0.07,16.67 -0.22,30.07 -0.3,15.8 -1.64,40.41 -4.09,73.83 7.44,1.09 12.35,1.67 14.8,1.67 22.69,0 41.51,-5.24 56.46,-15.8 15.99,-11.21 23.95,-26.06 23.95,-44.56 0,-12.08 -7.51,-22.86 -22.46,-32.25 -14.36,-9.1 -30.05,-13.61 -47.09,-13.61zm341.74 126.31c-1.34,21.77 -11.38,32.62 -30.28,32.62 -18.3,0 -27.45,-9.25 -27.45,-27.74l-1.11 -21.55c-32.66,5.09 -56.09,21.55 -70.15,49.29l0.22 107.24c0,8.15 -2.83,14.85 -8.48,20.17 -5.65,5.31 -12.87,8.01 -21.57,8.01 -9,0 -15.99,-2.84 -20.9,-8.52 -4.69,-5.09 -6.99,-11.65 -6.99,-19.66l0 -139.64c0,-4.44 0.15,-11 0.45,-19.73 0.29,-8.74 0.44,-15.36 0.44,-19.73 0,-8.01 2.38,-14.63 7.3,-19.95 4.83,-5.31 11.75,-8.01 20.75,-8.01 16.14,0 25.74,8.08 28.79,24.32 25.74,-18.78 54.23,-28.18 85.62,-28.18 29.08,0 43.59,18.93 43.59,56.72 0,7.28 -0.07,12.01 -0.22,14.34zm141.78 163.59c-34.74,0 -63.16,-8.08 -85.25,-24.32 -24.4,-17.91 -36.6,-43.17 -36.6,-75.72 0,-36.04 9.67,-66.47 29.01,-91.37 21.5,-27.59 50.43,-41.35 86.96,-41.35 25.29,0 46.27,4.01 63.01,11.94 21.94,10.56 32.88,26.87 32.88,49.07 0,15.65 -8.93,29.48 -26.78,41.57 -8.18,5.61 -24.55,13.69 -49.09,24.32l-73.42 31.81c6.99,7.43 15.4,12.96 25.29,16.67 9.89,3.71 21.2,5.53 34,5.53 19.42,0 35.93,-3.93 49.47,-11.72 12.05,-6.99 21.72,-10.48 28.94,-10.48 15.1,0 22.69,7.2 22.69,21.55 0,16.24 -12.13,29.41 -36.37,39.68 -20.38,8.52 -41.96,12.81 -64.72,12.81zm-5.87 -181.14c-13.54,0 -25.07,4.44 -34.67,13.25 -9.59,8.81 -17.33,22.06 -23.13,39.68 16.44,-6.99 32.8,-13.91 49.09,-20.68 19.64,-8.74 35.26,-16.74 46.87,-24.17 -9.75,-5.39 -22.47,-8.08 -38.16,-8.08zm313.77 79.43c-20.09,1.38 -55.72,2.11 -107.04,2.11 -9,0 -16.89,-1.97 -23.73,-5.97 -7.96,-4.8 -11.98,-11.36 -11.98,-19.66 0,-8.22 4.02,-14.78 11.98,-19.58 6.84,-4.15 14.73,-6.19 23.73,-6.19 11.53,0 28.71,-0.3 51.7,-0.95 22.91,-0.66 40.17,-0.95 51.62,-0.95 9,0 16.89,1.75 23.73,5.32 8.7,4.59 13.09,11.28 13.09,20.24 0,15.51 -11.01,24.1 -33.1,25.63zm426.39 39.39c0,7.13 -1.19,18.35 -3.65,33.71 -2.9,18.35 -13.54,27.52 -31.83,27.52 -10.19,0 -21.65,-5.61 -34.44,-16.82 -55.94,-49.36 -119.09,-118.52 -189.39,-207.56 -0.89,36.98 -1.34,59.62 -1.34,68 0,11.28 0.3,28.18 0.82,50.82 0.52,22.57 0.74,39.53 0.74,50.74 0,41.94 -10.42,62.91 -31.32,62.91 -10.64,0 -19.12,-3.2 -25.52,-9.61 -5.65,-5.67 -8.48,-12.59 -8.48,-20.67 0,-5.68 0.44,-14.27 1.41,-25.77 0.89,-11.58 1.41,-20.17 1.41,-25.85 0,-8.37 0.3,-20.97 0.81,-37.72 0.6,-16.81 0.89,-29.41 0.89,-37.78 0,-8.95 -0.22,-22.43 -0.67,-40.56 -0.44,-18.05 -0.59,-31.52 -0.59,-40.48 0,-8.52 -0.89,-21.26 -2.6,-38.15 -1.71,-16.96 -2.6,-29.7 -2.6,-38.22 0,-8.52 3.72,-16.16 11.23,-22.78 7.44,-6.7 15.99,-10.05 25.59,-10.05 10.71,0 22.61,9.1 35.7,27.3 65.91,92.17 131,167.3 195.19,225.48 0.15,-4.59 0.22,-15.36 0.22,-32.47 0,-70.11 -0.74,-117.36 -2.16,-141.82 -0.3,-4.15 -1.26,-11.79 -2.82,-23.01 -1.42,-9.97 -2.16,-17.83 -2.16,-23.52 0,-19.58 10.64,-29.41 31.84,-29.41 23.66,0 35.48,35.75 35.48,107.31 0,1.53 -0.15,12.74 -0.45,33.71 -0.89,72.22 -1.34,117.14 -1.34,134.76zm231.5 -70.77c0,9.54 0.07,23.88 0.22,43.03 0.15,19.22 0.22,33.56 0.22,43.1 0,2.98 0.22,7.43 0.74,13.32 0.52,5.89 0.74,10.34 0.74,13.32 0,8.01 -2.97,14.56 -8.85,19.73 -5.88,5.17 -13.09,7.79 -21.65,7.79 -12.12,0 -20.9,-5.31 -26.41,-16.02 -18.59,6.7 -37.86,10.05 -57.72,10.05 -20.61,0 -38.01,-4.22 -52.07,-12.74 -15.85,-9.75 -25.3,-23.95 -28.34,-42.59 -5.65,-35.38 -8.48,-66.98 -8.48,-94.87 0,-18.35 2.16,-39.31 6.47,-62.98 2.9,-15.94 12.72,-23.95 29.46,-23.95 8.41,0 15.62,2.55 21.57,7.72 5.95,5.17 8.93,11.72 8.93,19.59 0,6.26 -1.04,15.94 -3.13,29.27 -2.08,13.25 -3.12,23.37 -3.12,30.28 0,19.88 0.67,37.28 2.08,52.2 1.34,14.85 3.42,27.16 6.17,36.91 3.65,1.53 7.14,2.77 10.56,3.64 3.42,0.8 6.7,1.24 9.89,1.24 16.14,0 33.85,-2.26 53.19,-6.84 0,-10.92 -0.07,-23.37 -0.22,-37.28 -0.3,-16.67 -0.44,-28.61 -0.44,-35.82 0,-29.2 1.34,-54.31 4.09,-75.5 2.16,-16.96 12.05,-25.41 29.68,-25.41 8.56,0 15.92,2.62 22.02,7.86 6.1,5.31 8.93,11.87 8.48,19.88 -2.75,54.17 -4.09,79.14 -4.09,75.06zm223.76 -30.5c-1.34,21.77 -11.38,32.62 -30.28,32.62 -18.3,0 -27.45,-9.25 -27.45,-27.74l-1.11 -21.55c-32.66,5.09 -56.09,21.55 -70.15,49.29l0.22 107.24c0,8.15 -2.83,14.85 -8.48,20.17 -5.65,5.31 -12.87,8.01 -21.57,8.01 -9,0 -15.99,-2.84 -20.9,-8.52 -4.69,-5.09 -6.99,-11.65 -6.99,-19.66l0 -139.64c0,-4.44 0.15,-11 0.45,-19.73 0.29,-8.74 0.44,-15.36 0.44,-19.73 0,-8.01 2.38,-14.63 7.29,-19.95 4.84,-5.31 11.76,-8.01 20.76,-8.01 16.14,0 25.74,8.08 28.79,24.32 25.74,-18.78 54.23,-28.18 85.62,-28.18 29.08,0 43.59,18.93 43.59,56.72 0,7.28 -0.07,12.01 -0.22,14.34zm185.3 -2.41c-14.43,0 -23.06,-5.89 -25.96,-17.69 -5.8,-0.94 -11.75,-1.46 -17.85,-1.46 -35.04,0 -52.52,4.66 -52.52,14.06 0,5.53 10.56,13.03 31.61,22.42 28.79,12.96 48.2,23 58.39,30.29 21.05,14.93 31.62,31.74 31.62,50.52 0,24.46 -11.61,43.03 -34.89,55.7 -18.74,10.12 -41.73,15.14 -69.11,15.14 -19.27,0 -36.97,-2.91 -52.97,-8.74 -21.79,-8.01 -32.65,-19.73 -32.65,-35.24 0,-14.2 8.63,-21.33 25.96,-21.33 6.69,0 16.37,2.04 28.94,6.19 12.65,4.15 22.39,6.19 29.24,6.19 29.53,0 44.33,-5.83 44.48,-17.48 0,-7.28 -10.26,-15.29 -30.72,-24.1 -29.98,-12.96 -49.1,-22.28 -57.58,-27.96 -20.46,-14.05 -30.72,-31.23 -30.72,-51.4 0,-28.61 15.47,-47.83 46.42,-57.8 18.15,-5.83 45.75,-8.74 82.79,-8.74 14.51,0 25.3,1.82 32.29,5.53 9.59,4.95 14.36,14.13 14.36,27.52 0,25.56 -7.07,38.37 -21.13,38.37zm173.77 166c-34.74,0 -63.16,-8.08 -85.25,-24.32 -24.4,-17.91 -36.6,-43.17 -36.6,-75.72 0,-36.04 9.67,-66.47 29.01,-91.37 21.5,-27.59 50.43,-41.35 86.96,-41.35 25.29,0 46.27,4.01 63.01,11.94 21.94,10.56 32.88,26.87 32.88,49.07 0,15.65 -8.93,29.48 -26.78,41.57 -8.19,5.61 -24.55,13.69 -49.1,24.32l-73.42 31.81c6.99,7.43 15.4,12.96 25.29,16.67 9.89,3.71 21.2,5.53 34,5.53 19.42,0 35.93,-3.93 49.47,-11.72 12.06,-6.99 21.72,-10.48 28.94,-10.48 15.1,0 22.69,7.2 22.69,21.55 0,16.24 -12.13,29.41 -36.37,39.68 -20.38,8.52 -41.96,12.81 -64.72,12.81zm-5.87 -181.14c-13.54,0 -25.07,4.44 -34.67,13.25 -9.6,8.81 -17.33,22.06 -23.13,39.68 16.44,-6.99 32.8,-13.91 49.09,-20.68 19.64,-8.74 35.26,-16.74 46.87,-24.17 -9.74,-5.39 -22.46,-8.08 -38.16,-8.08zm328.05 17.55c-1.34,21.77 -11.38,32.62 -30.28,32.62 -18.3,0 -27.45,-9.25 -27.45,-27.74l-1.12 -21.55c-32.65,5.09 -56.09,21.55 -70.15,49.29l0.22 107.24c0,8.15 -2.83,14.85 -8.48,20.17 -5.66,5.31 -12.87,8.01 -21.57,8.01 -9,0 -15.99,-2.84 -20.9,-8.52 -4.69,-5.09 -6.99,-11.65 -6.99,-19.66l0 -139.64c0,-4.44 0.15,-11 0.44,-19.73 0.3,-8.74 0.44,-15.36 0.44,-19.73 0,-8.01 2.38,-14.63 7.29,-19.95 4.83,-5.31 11.75,-8.01 20.76,-8.01 16.14,0 25.74,8.08 28.79,24.32 25.74,-18.78 54.23,-28.18 85.62,-28.18 29.09,0 43.59,18.93 43.59,56.72 0,7.28 -0.07,12.01 -0.22,14.34zm248.46 -26.5c-15.85,32.32 -40.91,83 -75.13,152.09 -18.6,37.13 -32.8,67.93 -42.55,92.39 -3.05,8.81 -7.81,21.84 -14.36,39.24 -5.2,13.32 -14.5,20.02 -27.89,20.02 -8.26,0 -15.55,-2.62 -21.8,-7.86 -6.25,-5.31 -9.37,-11.87 -9.37,-19.87 0,-13.18 15.39,-52.42 46.19,-117.51 -15.99,-30.87 -41.36,-76.3 -76.02,-136.29 -3.5,-5.39 -7.07,-10.85 -10.72,-16.45 -3.94,-6.48 -5.87,-12.45 -5.87,-17.91 0,-7.64 3.13,-14.41 9.37,-20.24 6.25,-5.82 13.46,-8.74 21.57,-8.74 9.59,0 17.11,3.5 22.46,10.49 20.61,26.86 44.63,67.27 72.09,121.29 15.54,-33.64 24.99,-54.02 28.34,-60.94 10.34,-21.19 20.38,-39.82 30.28,-55.91 6.24,-10.27 14.8,-15.37 25.73,-15.37 8.11,0 15.4,2.7 21.8,8.08 6.4,5.46 9.59,12.01 9.59,19.87 0,4.08 -1.26,8.67 -3.72,13.62zm-3332.61 561.83c-13.09,0 -22.76,-6.77 -29.01,-20.24 -2.9,-6.41 -5.8,-10.27 -8.7,-11.58 -2.16,-0.94 -7.96,-1.45 -17.26,-1.45 -18.3,0 -39.43,13.91 -63.38,41.79 -33.55,38.95 -50.36,75.43 -50.36,109.43 0,15.51 5.28,28.76 15.92,39.89 10.64,11.07 23.28,16.6 38.16,16.6 14.35,0 28.94,-3.71 43.81,-11.07 5.2,-2.77 16.22,-9.69 33.1,-20.97 11.31,-7.35 19.94,-11.07 25.74,-11.07 8.7,0 16.14,3.13 22.24,9.39 5.65,5.82 8.48,12.52 8.48,20.02 0,8.44 -3.79,15.72 -11.31,21.99 -39.94,32.98 -80.64,49.51 -122.07,49.51 -32.73,0 -60.33,-11.65 -82.8,-34.95 -21.5,-22.5 -32.28,-48.93 -32.28,-79.35 0,-47.62 21.27,-96.25 63.82,-145.91 36.23,-42.08 73.2,-63.12 110.99,-63.12 6.32,0 12.13,0.22 17.26,0.65 5.2,0.44 9.74,1.02 13.69,1.89 6.33,-6.11 14.06,-9.17 23.06,-9.17 14.8,0 23.95,8.3 27.45,24.97 2.45,11.94 3.72,25.85 3.72,41.79 0,7.13 -2.08,13.62 -6.32,19.44 -5.5,7.65 -13.54,11.5 -23.96,11.5zm124.98 195.77c0,27.01 -10.04,40.55 -30.05,40.55 -8.78,0 -15.92,-2.69 -21.65,-8.08 -5.65,-5.46 -8.48,-12.38 -8.48,-20.9l0 -295c0,-8.23 3.05,-15 9.15,-20.24 5.8,-4.88 13.02,-7.28 21.57,-7.28 8.63,0 15.62,2.55 21.2,7.57 5.5,5.02 8.26,11.72 8.26,19.95l0 283.43zm243.18 43.1c-6.62,0 -17.26,-6.33 -31.76,-19 -13.39,6.26 -25.15,10.99 -35.33,14.2 -10.19,3.2 -18.82,4.8 -25.96,4.8 -34.96,0 -61.3,-9.17 -78.78,-27.52 -17.48,-18.35 -26.26,-45.79 -26.26,-82.34 0,-34.29 12.94,-63.63 38.76,-88.02 25.89,-24.39 56.83,-36.55 92.83,-36.55 13.83,0 29.83,3.79 47.98,11.43 21.94,9.1 32.88,19.73 32.88,31.89 0,5.02 -1.63,9.46 -4.98,13.25 -1.41,5.68 -2.53,12.74 -3.35,21.26 -0.82,8.52 -1.19,18.49 -1.19,29.85 0,26.94 1.93,46.31 5.88,58.1 0.44,1.31 3.79,8.59 10.04,21.99 5.65,12.09 8.48,19 8.48,20.67 0,7.5 -2.98,13.69 -8.85,18.57 -5.88,4.95 -12.65,7.43 -20.38,7.43zm-54 -144.01c0,-4.51 0.29,-9.75 0.96,-15.65 0.67,-5.89 1.64,-12.52 2.9,-19.73 -2.9,-1.46 -5.5,-2.47 -7.74,-3.13 -2.23,-0.65 -4.17,-0.94 -5.8,-0.94 -19.71,0 -36.97,7.57 -51.78,22.72 -14.8,15.14 -22.24,32.69 -22.24,52.64 0,19 3.5,33.34 10.49,42.95 6.92,9.61 17.41,14.42 31.32,14.42 9,0 17.55,-1.46 25.59,-4.37 8.04,-2.91 15.62,-7.21 22.76,-12.89 -4.31,-33.85 -6.47,-59.19 -6.47,-76.01zm267.35 -23.88c-14.43,0 -23.06,-5.9 -25.96,-17.69 -5.8,-0.95 -11.76,-1.46 -17.85,-1.46 -35.04,0 -52.52,4.66 -52.52,14.05 0,5.53 10.56,13.03 31.61,22.42 28.79,12.96 48.21,23 58.4,30.29 21.05,14.93 31.61,31.74 31.61,50.53 0,24.46 -11.6,43.03 -34.89,55.7 -18.74,10.12 -41.73,15.14 -69.1,15.14 -19.27,0 -36.97,-2.91 -52.97,-8.74 -21.79,-8.01 -32.66,-19.73 -32.66,-35.24 0,-14.2 8.63,-21.33 25.96,-21.33 6.69,0 16.37,2.04 28.94,6.19 12.65,4.15 22.39,6.19 29.23,6.19 29.54,0 44.33,-5.83 44.48,-17.47 0,-7.28 -10.26,-15.29 -30.72,-24.1 -29.98,-12.96 -49.09,-22.28 -57.57,-27.96 -20.46,-14.06 -30.72,-31.23 -30.72,-51.4 0,-28.61 15.47,-47.83 46.42,-57.81 18.15,-5.82 45.75,-8.74 82.79,-8.74 14.51,0 25.29,1.82 32.28,5.53 9.6,4.95 14.36,14.13 14.36,27.52 0,25.55 -7.06,38.37 -21.13,38.37zm217.29 0c-14.43,0 -23.06,-5.9 -25.96,-17.69 -5.8,-0.95 -11.75,-1.46 -17.85,-1.46 -35.04,0 -52.52,4.66 -52.52,14.05 0,5.53 10.56,13.03 31.61,22.42 28.79,12.96 48.2,23 58.39,30.29 21.05,14.93 31.62,31.74 31.62,50.53 0,24.46 -11.61,43.03 -34.89,55.7 -18.74,10.12 -41.73,15.14 -69.11,15.14 -19.27,0 -36.97,-2.91 -52.97,-8.74 -21.79,-8.01 -32.65,-19.73 -32.65,-35.24 0,-14.2 8.63,-21.33 25.96,-21.33 6.69,0 16.37,2.04 28.94,6.19 12.65,4.15 22.39,6.19 29.24,6.19 29.53,0 44.33,-5.83 44.48,-17.47 0,-7.28 -10.26,-15.29 -30.72,-24.1 -29.98,-12.96 -49.1,-22.28 -57.58,-27.96 -20.46,-14.06 -30.72,-31.23 -30.72,-51.4 0,-28.61 15.47,-47.83 46.42,-57.81 18.15,-5.82 45.75,-8.74 82.8,-8.74 14.5,0 25.29,1.82 32.28,5.53 9.59,4.95 14.36,14.13 14.36,27.52 0,25.55 -7.07,38.37 -21.13,38.37zm173.77 166c-34.74,0 -63.16,-8.08 -85.25,-24.31 -24.4,-17.91 -36.6,-43.18 -36.6,-75.72 0,-36.04 9.67,-66.47 29.01,-91.37 21.5,-27.59 50.43,-41.35 86.96,-41.35 25.29,0 46.27,4 63.01,11.94 21.94,10.56 32.88,26.87 32.88,49.07 0,15.65 -8.93,29.48 -26.78,41.57 -8.19,5.61 -24.55,13.69 -49.1,24.32l-73.42 31.81c6.99,7.43 15.4,12.96 25.29,16.67 9.89,3.71 21.2,5.53 34,5.53 19.42,0 35.93,-3.93 49.47,-11.72 12.06,-6.99 21.72,-10.48 28.94,-10.48 15.1,0 22.69,7.21 22.69,21.55 0,16.24 -12.13,29.41 -36.37,39.68 -20.38,8.52 -41.96,12.81 -64.72,12.81zm-5.87 -181.14c-13.54,0 -25.07,4.44 -34.67,13.25 -9.6,8.81 -17.33,22.06 -23.13,39.68 16.44,-6.99 32.8,-13.91 49.09,-20.68 19.64,-8.74 35.26,-16.75 46.87,-24.17 -9.74,-5.39 -22.46,-8.08 -38.16,-8.08zm298.89 15.14c-14.43,0 -23.06,-5.9 -25.96,-17.69 -5.8,-0.95 -11.75,-1.46 -17.85,-1.46 -35.04,0 -52.52,4.66 -52.52,14.05 0,5.53 10.56,13.03 31.61,22.42 28.79,12.96 48.2,23 58.39,30.29 21.05,14.93 31.62,31.74 31.62,50.53 0,24.46 -11.61,43.03 -34.89,55.7 -18.74,10.12 -41.73,15.14 -69.11,15.14 -19.27,0 -36.97,-2.91 -52.97,-8.74 -21.79,-8.01 -32.65,-19.73 -32.65,-35.24 0,-14.2 8.63,-21.33 25.96,-21.33 6.69,0 16.37,2.04 28.94,6.19 12.65,4.15 22.39,6.19 29.24,6.19 29.53,0 44.33,-5.83 44.48,-17.47 0,-7.28 -10.26,-15.29 -30.72,-24.1 -29.98,-12.96 -49.1,-22.28 -57.58,-27.96 -20.46,-14.06 -30.72,-31.23 -30.72,-51.4 0,-28.61 15.47,-47.83 46.42,-57.81 18.15,-5.82 45.75,-8.74 82.79,-8.74 14.51,0 25.3,1.82 32.29,5.53 9.59,4.95 14.36,14.13 14.36,27.52 0,25.55 -7.07,38.37 -21.13,38.37z"/>
   <path class="fil6 str6" d="M1233.04 5084.82c19.49,-1.68 33.4,-2.55 41.81,-2.55 27.15,0 40.76,9.1 40.76,27.3 0,18.71 -14.43,27.67 -43.37,26.86 -9.15,-0.29 -23.06,0.37 -41.66,1.9 -0.59,15.07 -0.74,34.29 -0.44,57.58 0.59,33.56 0.89,52.72 0.89,57.44 0,25.99 -1.71,46.59 -5.06,61.81 -3.35,15.22 -12.87,22.86 -28.72,22.86 -8.11,0 -15.25,-2.55 -21.27,-7.72 -6.03,-5.1 -9,-11.58 -9,-19.37 0,-1.89 0.15,-3.64 0.44,-5.31 3.5,-20.39 5.2,-39.54 5.2,-57.44l0 -106.66c-2.6,0.15 -7.44,0.73 -14.35,1.67 -5.5,0.73 -9.74,1.09 -12.65,1.09 -8.85,0 -16.22,-2.54 -22.02,-7.57 -5.8,-5.02 -8.7,-11.87 -8.7,-20.38 0,-13.18 7.14,-21.92 21.35,-26 6.4,-1.89 19.04,-3.06 38.09,-3.64 0.15,-2.55 1.12,-10.63 2.83,-24.1 4.09,-31.74 12.87,-55.33 26.41,-70.84 16.81,-19.3 42.7,-28.98 77.59,-28.98 26.56,0 39.87,9.32 39.87,27.96 0,18.49 -12.35,27.74 -37.05,27.74 -17.56,0 -30.35,6.04 -38.31,18.13 -5.95,8.96 -9.97,22.94 -11.98,42.01l-0.67 6.19zm213.13 231.66c-26.85,0 -49.99,-9.03 -69.33,-27.08 -21.2,-19.8 -32.28,-46.16 -33.33,-79.14 -1.04,-31.45 7.74,-59.41 26.41,-84.02 22.02,-29.05 52.74,-43.54 92.17,-43.54 29.01,0 52.15,11.35 69.26,34.15 15.4,20.46 23.13,45.87 23.13,76.15 0,32.98 -9,61.15 -27,84.45 -20.23,25.99 -47.31,39.02 -81.31,39.02zm13.09 -177.5c-17.85,-0.15 -31.98,7.79 -42.25,23.89 -8.7,13.54 -13.09,29.26 -13.09,47.39 0,17.04 4.91,30.14 14.81,39.24 7.89,7.21 17.04,10.85 27.45,10.85 12.65,0 23.65,-4.22 32.95,-12.59 10.56,-9.83 16.22,-23.08 16.96,-39.9 1.86,-45.8 -10.41,-68.73 -36.82,-68.88zm314.37 11.14c-1.34,21.77 -11.38,32.62 -30.28,32.62 -18.3,0 -27.45,-9.25 -27.45,-27.74l-1.11 -21.55c-32.66,5.09 -56.09,21.55 -70.15,49.29l0.22 107.24c0,8.15 -2.83,14.85 -8.48,20.17 -5.66,5.31 -12.87,8.01 -21.57,8.01 -9,0 -15.99,-2.84 -20.9,-8.52 -4.69,-5.09 -6.99,-11.65 -6.99,-19.66l0 -139.64c0,-4.44 0.15,-11 0.44,-19.73 0.3,-8.74 0.44,-15.36 0.44,-19.73 0,-8.01 2.38,-14.63 7.29,-19.95 4.84,-5.31 11.75,-8.01 20.76,-8.01 16.14,0 25.74,8.08 28.79,24.32 25.74,-18.78 54.23,-28.18 85.62,-28.18 29.09,0 43.59,18.93 43.59,56.72 0,7.28 -0.07,12.01 -0.22,14.34zm293.17 34.73c-2.45,0 -8.56,-0.51 -18.3,-1.53 -0.82,19.95 -1.27,52.64 -1.27,98.14 0,7.57 -2.67,13.98 -8.03,19.44 -5.43,5.39 -12.28,8.08 -20.53,8.08 -8.26,0 -15.17,-2.7 -20.61,-8.08 -5.43,-5.46 -8.18,-11.87 -8.18,-19.44l0 -59.48c0,-22.06 1.49,-54.68 4.39,-97.92 2.75,-43.98 4.17,-76.74 4.31,-98.36 0.15,-36.98 10.78,-54.67 31.83,-53.07 4.91,-1.31 11.75,-2.26 20.46,-2.91 8.7,-0.66 19.34,-0.95 31.84,-0.95 28.49,0 55.19,9.03 80.19,27.08 27.75,20.17 41.66,44.78 41.66,73.82 0,36.41 -14.72,65.31 -44.26,86.79 -26.11,18.93 -57.28,28.39 -93.51,28.39zm10.87 -161.04c-4.61,0 -8.78,0 -12.28,0.07 -3.57,0.07 -6.62,0.29 -9.07,0.58 0,6.7 -0.07,16.67 -0.22,30.07 -0.3,15.8 -1.64,40.41 -4.09,73.83 7.44,1.09 12.35,1.67 14.8,1.67 22.69,0 41.51,-5.24 56.46,-15.8 15.99,-11.21 23.95,-26.06 23.95,-44.56 0,-12.08 -7.51,-22.86 -22.46,-32.25 -14.36,-9.1 -30.05,-13.61 -47.09,-13.61zm341.74 126.31c-1.34,21.77 -11.38,32.62 -30.28,32.62 -18.3,0 -27.45,-9.25 -27.45,-27.74l-1.11 -21.55c-32.66,5.09 -56.09,21.55 -70.15,49.29l0.22 107.24c0,8.15 -2.83,14.85 -8.48,20.17 -5.65,5.31 -12.87,8.01 -21.57,8.01 -9,0 -15.99,-2.84 -20.9,-8.52 -4.69,-5.09 -6.99,-11.65 -6.99,-19.66l0 -139.64c0,-4.44 0.15,-11 0.45,-19.73 0.29,-8.74 0.44,-15.36 0.44,-19.73 0,-8.01 2.38,-14.63 7.3,-19.95 4.83,-5.31 11.75,-8.01 20.75,-8.01 16.14,0 25.74,8.08 28.79,24.32 25.74,-18.78 54.23,-28.18 85.62,-28.18 29.08,0 43.59,18.93 43.59,56.72 0,7.28 -0.07,12.01 -0.22,14.34zm141.78 163.59c-34.74,0 -63.16,-8.08 -85.25,-24.32 -24.4,-17.91 -36.6,-43.17 -36.6,-75.72 0,-36.04 9.67,-66.47 29.01,-91.37 21.5,-27.59 50.43,-41.35 86.96,-41.35 25.29,0 46.27,4.01 63.01,11.94 21.94,10.56 32.88,26.87 32.88,49.07 0,15.65 -8.93,29.48 -26.78,41.57 -8.18,5.61 -24.55,13.69 -49.09,24.32l-73.42 31.81c6.99,7.43 15.4,12.96 25.29,16.67 9.89,3.71 21.2,5.53 34,5.53 19.42,0 35.93,-3.93 49.47,-11.72 12.05,-6.99 21.72,-10.48 28.94,-10.48 15.1,0 22.69,7.2 22.69,21.55 0,16.24 -12.13,29.41 -36.37,39.68 -20.38,8.52 -41.96,12.81 -64.72,12.81zm-5.87 -181.14c-13.54,0 -25.07,4.44 -34.67,13.25 -9.59,8.81 -17.33,22.06 -23.13,39.68 16.44,-6.99 32.8,-13.91 49.09,-20.68 19.64,-8.74 35.26,-16.74 46.87,-24.17 -9.75,-5.39 -22.47,-8.08 -38.16,-8.08zm313.77 79.43c-20.09,1.38 -55.72,2.11 -107.04,2.11 -9,0 -16.89,-1.97 -23.73,-5.97 -7.96,-4.8 -11.98,-11.36 -11.98,-19.66 0,-8.22 4.02,-14.78 11.98,-19.58 6.84,-4.15 14.73,-6.19 23.73,-6.19 11.53,0 28.71,-0.3 51.7,-0.95 22.91,-0.66 40.17,-0.95 51.62,-0.95 9,0 16.89,1.75 23.73,5.32 8.7,4.59 13.09,11.28 13.09,20.24 0,15.51 -11.01,24.1 -33.1,25.63zm426.39 39.39c0,7.13 -1.19,18.35 -3.65,33.71 -2.9,18.35 -13.54,27.52 -31.83,27.52 -10.19,0 -21.65,-5.61 -34.44,-16.82 -55.94,-49.36 -119.09,-118.52 -189.39,-207.56 -0.89,36.98 -1.34,59.62 -1.34,68 0,11.28 0.3,28.18 0.82,50.82 0.52,22.57 0.74,39.53 0.74,50.74 0,41.94 -10.42,62.91 -31.32,62.91 -10.64,0 -19.12,-3.2 -25.52,-9.61 -5.65,-5.67 -8.48,-12.59 -8.48,-20.67 0,-5.68 0.44,-14.27 1.41,-25.77 0.89,-11.58 1.41,-20.17 1.41,-25.85 0,-8.37 0.3,-20.97 0.81,-37.72 0.6,-16.81 0.89,-29.41 0.89,-37.78 0,-8.95 -0.22,-22.43 -0.67,-40.56 -0.44,-18.05 -0.59,-31.52 -0.59,-40.48 0,-8.52 -0.89,-21.26 -2.6,-38.15 -1.71,-16.96 -2.6,-29.7 -2.6,-38.22 0,-8.52 3.72,-16.16 11.23,-22.78 7.44,-6.7 15.99,-10.05 25.59,-10.05 10.71,0 22.61,9.1 35.7,27.3 65.91,92.17 131,167.3 195.19,225.48 0.15,-4.59 0.22,-15.36 0.22,-32.47 0,-70.11 -0.74,-117.36 -2.16,-141.82 -0.3,-4.15 -1.26,-11.79 -2.82,-23.01 -1.42,-9.97 -2.16,-17.83 -2.16,-23.52 0,-19.58 10.64,-29.41 31.84,-29.41 23.66,0 35.48,35.75 35.48,107.31 0,1.53 -0.15,12.74 -0.45,33.71 -0.89,72.22 -1.34,117.14 -1.34,134.76zm231.5 -70.77c0,9.54 0.07,23.88 0.22,43.03 0.15,19.22 0.22,33.56 0.22,43.1 0,2.98 0.22,7.43 0.74,13.32 0.52,5.89 0.74,10.34 0.74,13.32 0,8.01 -2.97,14.56 -8.85,19.73 -5.88,5.17 -13.09,7.79 -21.65,7.79 -12.12,0 -20.9,-5.31 -26.41,-16.02 -18.59,6.7 -37.86,10.05 -57.72,10.05 -20.61,0 -38.01,-4.22 -52.07,-12.74 -15.85,-9.75 -25.3,-23.95 -28.34,-42.59 -5.65,-35.38 -8.48,-66.98 -8.48,-94.87 0,-18.35 2.16,-39.31 6.47,-62.98 2.9,-15.94 12.72,-23.95 29.46,-23.95 8.41,0 15.62,2.55 21.57,7.72 5.95,5.17 8.93,11.72 8.93,19.59 0,6.26 -1.04,15.94 -3.13,29.27 -2.08,13.25 -3.12,23.37 -3.12,30.28 0,19.88 0.67,37.28 2.08,52.2 1.34,14.85 3.42,27.16 6.17,36.91 3.65,1.53 7.14,2.77 10.56,3.64 3.42,0.8 6.7,1.24 9.89,1.24 16.14,0 33.85,-2.26 53.19,-6.84 0,-10.92 -0.07,-23.37 -0.22,-37.28 -0.3,-16.67 -0.44,-28.61 -0.44,-35.82 0,-29.2 1.34,-54.31 4.09,-75.5 2.16,-16.96 12.05,-25.41 29.68,-25.41 8.56,0 15.92,2.62 22.02,7.86 6.1,5.31 8.93,11.87 8.48,19.88 -2.75,54.17 -4.09,79.14 -4.09,75.06zm223.76 -30.5c-1.34,21.77 -11.38,32.62 -30.28,32.62 -18.3,0 -27.45,-9.25 -27.45,-27.74l-1.11 -21.55c-32.66,5.09 -56.09,21.55 -70.15,49.29l0.22 107.24c0,8.15 -2.83,14.85 -8.48,20.17 -5.65,5.31 -12.87,8.01 -21.57,8.01 -9,0 -15.99,-2.84 -20.9,-8.52 -4.69,-5.09 -6.99,-11.65 -6.99,-19.66l0 -139.64c0,-4.44 0.15,-11 0.45,-19.73 0.29,-8.74 0.44,-15.36 0.44,-19.73 0,-8.01 2.38,-14.63 7.29,-19.95 4.84,-5.31 11.76,-8.01 20.76,-8.01 16.14,0 25.74,8.08 28.79,24.32 25.74,-18.78 54.23,-28.18 85.62,-28.18 29.08,0 43.59,18.93 43.59,56.72 0,7.28 -0.07,12.01 -0.22,14.34zm185.3 -2.41c-14.43,0 -23.06,-5.89 -25.96,-17.69 -5.8,-0.94 -11.75,-1.46 -17.85,-1.46 -35.04,0 -52.52,4.66 -52.52,14.06 0,5.53 10.56,13.03 31.61,22.42 28.79,12.96 48.2,23 58.39,30.29 21.05,14.93 31.62,31.74 31.62,50.52 0,24.46 -11.61,43.03 -34.89,55.7 -18.74,10.12 -41.73,15.14 -69.11,15.14 -19.27,0 -36.97,-2.91 -52.97,-8.74 -21.79,-8.01 -32.65,-19.73 -32.65,-35.24 0,-14.2 8.63,-21.33 25.96,-21.33 6.69,0 16.37,2.04 28.94,6.19 12.65,4.15 22.39,6.19 29.24,6.19 29.53,0 44.33,-5.83 44.48,-17.48 0,-7.28 -10.26,-15.29 -30.72,-24.1 -29.98,-12.96 -49.1,-22.28 -57.58,-27.96 -20.46,-14.05 -30.72,-31.23 -30.72,-51.4 0,-28.61 15.47,-47.83 46.42,-57.8 18.15,-5.83 45.75,-8.74 82.79,-8.74 14.51,0 25.3,1.82 32.29,5.53 9.59,4.95 14.36,14.13 14.36,27.52 0,25.56 -7.07,38.37 -21.13,38.37zm173.77 166c-34.74,0 -63.16,-8.08 -85.25,-24.32 -24.4,-17.91 -36.6,-43.17 -36.6,-75.72 0,-36.04 9.67,-66.47 29.01,-91.37 21.5,-27.59 50.43,-41.35 86.96,-41.35 25.29,0 46.27,4.01 63.01,11.94 21.94,10.56 32.88,26.87 32.88,49.07 0,15.65 -8.93,29.48 -26.78,41.57 -8.19,5.61 -24.55,13.69 -49.1,24.32l-73.42 31.81c6.99,7.43 15.4,12.96 25.29,16.67 9.89,3.71 21.2,5.53 34,5.53 19.42,0 35.93,-3.93 49.47,-11.72 12.06,-6.99 21.72,-10.48 28.94,-10.48 15.1,0 22.69,7.2 22.69,21.55 0,16.24 -12.13,29.41 -36.37,39.68 -20.38,8.52 -41.96,12.81 -64.72,12.81zm-5.87 -181.14c-13.54,0 -25.07,4.44 -34.67,13.25 -9.6,8.81 -17.33,22.06 -23.13,39.68 16.44,-6.99 32.8,-13.91 49.09,-20.68 19.64,-8.74 35.26,-16.74 46.87,-24.17 -9.74,-5.39 -22.46,-8.08 -38.16,-8.08zm328.05 17.55c-1.34,21.77 -11.38,32.62 -30.28,32.62 -18.3,0 -27.45,-9.25 -27.45,-27.74l-1.12 -21.55c-32.65,5.09 -56.09,21.55 -70.15,49.29l0.22 107.24c0,8.15 -2.83,14.85 -8.48,20.17 -5.66,5.31 -12.87,8.01 -21.57,8.01 -9,0 -15.99,-2.84 -20.9,-8.52 -4.69,-5.09 -6.99,-11.65 -6.99,-19.66l0 -139.64c0,-4.44 0.15,-11 0.44,-19.73 0.3,-8.74 0.44,-15.36 0.44,-19.73 0,-8.01 2.38,-14.63 7.29,-19.95 4.83,-5.31 11.75,-8.01 20.76,-8.01 16.14,0 25.74,8.08 28.79,24.32 25.74,-18.78 54.23,-28.18 85.62,-28.18 29.09,0 43.59,18.93 43.59,56.72 0,7.28 -0.07,12.01 -0.22,14.34zm248.46 -26.5c-15.85,32.32 -40.91,83 -75.13,152.09 -18.6,37.13 -32.8,67.93 -42.55,92.39 -3.05,8.81 -7.81,21.84 -14.36,39.24 -5.2,13.32 -14.5,20.02 -27.89,20.02 -8.26,0 -15.55,-2.62 -21.8,-7.86 -6.25,-5.31 -9.37,-11.87 -9.37,-19.87 0,-13.18 15.39,-52.42 46.19,-117.51 -15.99,-30.87 -41.36,-76.3 -76.02,-136.29 -3.5,-5.39 -7.07,-10.85 -10.72,-16.45 -3.94,-6.48 -5.87,-12.45 -5.87,-17.91 0,-7.64 3.13,-14.41 9.37,-20.24 6.25,-5.82 13.46,-8.74 21.57,-8.74 9.59,0 17.11,3.5 22.46,10.49 20.61,26.86 44.63,67.27 72.09,121.29 15.54,-33.64 24.99,-54.02 28.34,-60.94 10.34,-21.19 20.38,-39.82 30.28,-55.91 6.24,-10.27 14.8,-15.37 25.73,-15.37 8.11,0 15.4,2.7 21.8,8.08 6.4,5.46 9.59,12.01 9.59,19.87 0,4.08 -1.26,8.67 -3.72,13.62zm-3332.61 561.83c-13.09,0 -22.76,-6.77 -29.01,-20.24 -2.9,-6.41 -5.8,-10.27 -8.7,-11.58 -2.16,-0.94 -7.96,-1.45 -17.26,-1.45 -18.3,0 -39.43,13.91 -63.38,41.79 -33.55,38.95 -50.36,75.43 -50.36,109.43 0,15.51 5.28,28.76 15.92,39.89 10.64,11.07 23.28,16.6 38.16,16.6 14.35,0 28.94,-3.71 43.81,-11.07 5.2,-2.77 16.22,-9.69 33.1,-20.97 11.31,-7.35 19.94,-11.07 25.74,-11.07 8.7,0 16.14,3.13 22.24,9.39 5.65,5.82 8.48,12.52 8.48,20.02 0,8.44 -3.79,15.72 -11.31,21.99 -39.94,32.98 -80.64,49.51 -122.07,49.51 -32.73,0 -60.33,-11.65 -82.8,-34.95 -21.5,-22.5 -32.28,-48.93 -32.28,-79.35 0,-47.62 21.27,-96.25 63.82,-145.91 36.23,-42.08 73.2,-63.12 110.99,-63.12 6.32,0 12.13,0.22 17.26,0.65 5.2,0.44 9.74,1.02 13.69,1.89 6.33,-6.11 14.06,-9.17 23.06,-9.17 14.8,0 23.95,8.3 27.45,24.97 2.45,11.94 3.72,25.85 3.72,41.79 0,7.13 -2.08,13.62 -6.32,19.44 -5.5,7.65 -13.54,11.5 -23.96,11.5zm124.98 195.77c0,27.01 -10.04,40.55 -30.05,40.55 -8.78,0 -15.92,-2.69 -21.65,-8.08 -5.65,-5.46 -8.48,-12.38 -8.48,-20.9l0 -295c0,-8.23 3.05,-15 9.15,-20.24 5.8,-4.88 13.02,-7.28 21.57,-7.28 8.63,0 15.62,2.55 21.2,7.57 5.5,5.02 8.26,11.72 8.26,19.95l0 283.43zm243.18 43.1c-6.62,0 -17.26,-6.33 -31.76,-19 -13.39,6.26 -25.15,10.99 -35.33,14.2 -10.19,3.2 -18.82,4.8 -25.96,4.8 -34.96,0 -61.3,-9.17 -78.78,-27.52 -17.48,-18.35 -26.26,-45.79 -26.26,-82.34 0,-34.29 12.94,-63.63 38.76,-88.02 25.89,-24.39 56.83,-36.55 92.83,-36.55 13.83,0 29.83,3.79 47.98,11.43 21.94,9.1 32.88,19.73 32.88,31.89 0,5.02 -1.63,9.46 -4.98,13.25 -1.41,5.68 -2.53,12.74 -3.35,21.26 -0.82,8.52 -1.19,18.49 -1.19,29.85 0,26.94 1.93,46.31 5.88,58.1 0.44,1.31 3.79,8.59 10.04,21.99 5.65,12.09 8.48,19 8.48,20.67 0,7.5 -2.98,13.69 -8.85,18.57 -5.88,4.95 -12.65,7.43 -20.38,7.43zm-54 -144.01c0,-4.51 0.29,-9.75 0.96,-15.65 0.67,-5.89 1.64,-12.52 2.9,-19.73 -2.9,-1.46 -5.5,-2.47 -7.74,-3.13 -2.23,-0.65 -4.17,-0.94 -5.8,-0.94 -19.71,0 -36.97,7.57 -51.78,22.72 -14.8,15.14 -22.24,32.69 -22.24,52.64 0,19 3.5,33.34 10.49,42.95 6.92,9.61 17.41,14.42 31.32,14.42 9,0 17.55,-1.46 25.59,-4.37 8.04,-2.91 15.62,-7.21 22.76,-12.89 -4.31,-33.85 -6.47,-59.19 -6.47,-76.01zm267.35 -23.88c-14.43,0 -23.06,-5.9 -25.96,-17.69 -5.8,-0.95 -11.76,-1.46 -17.85,-1.46 -35.04,0 -52.52,4.66 -52.52,14.05 0,5.53 10.56,13.03 31.61,22.42 28.79,12.96 48.21,23 58.4,30.29 21.05,14.93 31.61,31.74 31.61,50.53 0,24.46 -11.6,43.03 -34.89,55.7 -18.74,10.12 -41.73,15.14 -69.1,15.14 -19.27,0 -36.97,-2.91 -52.97,-8.74 -21.79,-8.01 -32.66,-19.73 -32.66,-35.24 0,-14.2 8.63,-21.33 25.96,-21.33 6.69,0 16.37,2.04 28.94,6.19 12.65,4.15 22.39,6.19 29.23,6.19 29.54,0 44.33,-5.83 44.48,-17.47 0,-7.28 -10.26,-15.29 -30.72,-24.1 -29.98,-12.96 -49.09,-22.28 -57.57,-27.96 -20.46,-14.06 -30.72,-31.23 -30.72,-51.4 0,-28.61 15.47,-47.83 46.42,-57.81 18.15,-5.82 45.75,-8.74 82.79,-8.74 14.51,0 25.29,1.82 32.28,5.53 9.6,4.95 14.36,14.13 14.36,27.52 0,25.55 -7.06,38.37 -21.13,38.37zm217.29 0c-14.43,0 -23.06,-5.9 -25.96,-17.69 -5.8,-0.95 -11.75,-1.46 -17.85,-1.46 -35.04,0 -52.52,4.66 -52.52,14.05 0,5.53 10.56,13.03 31.61,22.42 28.79,12.96 48.2,23 58.39,30.29 21.05,14.93 31.62,31.74 31.62,50.53 0,24.46 -11.61,43.03 -34.89,55.7 -18.74,10.12 -41.73,15.14 -69.11,15.14 -19.27,0 -36.97,-2.91 -52.97,-8.74 -21.79,-8.01 -32.65,-19.73 -32.65,-35.24 0,-14.2 8.63,-21.33 25.96,-21.33 6.69,0 16.37,2.04 28.94,6.19 12.65,4.15 22.39,6.19 29.24,6.19 29.53,0 44.33,-5.83 44.48,-17.47 0,-7.28 -10.26,-15.29 -30.72,-24.1 -29.98,-12.96 -49.1,-22.28 -57.58,-27.96 -20.46,-14.06 -30.72,-31.23 -30.72,-51.4 0,-28.61 15.47,-47.83 46.42,-57.81 18.15,-5.82 45.75,-8.74 82.8,-8.74 14.5,0 25.29,1.82 32.28,5.53 9.59,4.95 14.36,14.13 14.36,27.52 0,25.55 -7.07,38.37 -21.13,38.37zm173.77 166c-34.74,0 -63.16,-8.08 -85.25,-24.31 -24.4,-17.91 -36.6,-43.18 -36.6,-75.72 0,-36.04 9.67,-66.47 29.01,-91.37 21.5,-27.59 50.43,-41.35 86.96,-41.35 25.29,0 46.27,4 63.01,11.94 21.94,10.56 32.88,26.87 32.88,49.07 0,15.65 -8.93,29.48 -26.78,41.57 -8.19,5.61 -24.55,13.69 -49.1,24.32l-73.42 31.81c6.99,7.43 15.4,12.96 25.29,16.67 9.89,3.71 21.2,5.53 34,5.53 19.42,0 35.93,-3.93 49.47,-11.72 12.06,-6.99 21.72,-10.48 28.94,-10.48 15.1,0 22.69,7.21 22.69,21.55 0,16.24 -12.13,29.41 -36.37,39.68 -20.38,8.52 -41.96,12.81 -64.72,12.81zm-5.87 -181.14c-13.54,0 -25.07,4.44 -34.67,13.25 -9.6,8.81 -17.33,22.06 -23.13,39.68 16.44,-6.99 32.8,-13.91 49.09,-20.68 19.64,-8.74 35.26,-16.75 46.87,-24.17 -9.74,-5.39 -22.46,-8.08 -38.16,-8.08zm298.89 15.14c-14.43,0 -23.06,-5.9 -25.96,-17.69 -5.8,-0.95 -11.75,-1.46 -17.85,-1.46 -35.04,0 -52.52,4.66 -52.52,14.05 0,5.53 10.56,13.03 31.61,22.42 28.79,12.96 48.2,23 58.39,30.29 21.05,14.93 31.62,31.74 31.62,50.53 0,24.46 -11.61,43.03 -34.89,55.7 -18.74,10.12 -41.73,15.14 -69.11,15.14 -19.27,0 -36.97,-2.91 -52.97,-8.74 -21.79,-8.01 -32.65,-19.73 -32.65,-35.24 0,-14.2 8.63,-21.33 25.96,-21.33 6.69,0 16.37,2.04 28.94,6.19 12.65,4.15 22.39,6.19 29.24,6.19 29.53,0 44.33,-5.83 44.48,-17.47 0,-7.28 -10.26,-15.29 -30.72,-24.1 -29.98,-12.96 -49.1,-22.28 -57.58,-27.96 -20.46,-14.06 -30.72,-31.23 -30.72,-51.4 0,-28.61 15.47,-47.83 46.42,-57.81 18.15,-5.82 45.75,-8.74 82.79,-8.74 14.51,0 25.3,1.82 32.29,5.53 9.59,4.95 14.36,14.13 14.36,27.52 0,25.55 -7.07,38.37 -21.13,38.37z"/>
   <g>
    <g style="clip-path:url(#id3)">
     <image x="-207.98" y="7375.83" width="8654" height="4317.29" xlink:href="scribble_Images_Images\scribble_Images_ImgID3.png"/>
    </g>
   </g>
   <path class="fil8" d="M2659.72 7693.49l5594.15 1640.13 0 2184.61 -8206.43 30.02 0 -1561.43 -0 -867.46 2017.42 -906.69c264.45,-129.88 565.67,-274.16 594.87,-519.16z"/>
   <ellipse class="fil0 str7" cx="2050.03" cy="9744.9" rx="600" ry="367.49"/>
   <ellipse class="fil0 str7" cx="3137.97" cy="9245.49" rx="600" ry="367.49"/>
   <path class="fil0 str8" d="M933.21 9867.39c331.31,0 600,164.56 600,367.49 0,202.93 -268.69,367.49 -600,367.49 -331.32,0 -600,-164.57 -600,-367.49 0,-202.93 268.68,-367.49 600,-367.49z"/>
   <ellipse class="fil0 str7" cx="1154.8" cy="9118.28" rx="484.62" ry="296.82"/>
   <ellipse class="fil0 str7" cx="2117.58" cy="8731.95" rx="484.62" ry="296.82"/>
   <path class="fil0 str7" d="M322.99 11487.59c370.63,-150.1 856.3,-412.78 1214.15,-612.91 370.64,-212.64 485.66,-312.71 958.54,-312.71 370.64,0 741.27,-687.96 1239.71,-788.03 268.39,-50.04 715.71,-537.86 869.08,-537.86"/>
   <path class="fil0 str7" d="M1704 11494.5c360.13,-81.33 775.67,-555.81 1177.35,-664.26 304.72,-81.34 470.94,-135.56 664.85,-420.24 235.47,-352.46 595.6,-203.34 844.92,-623.59 83.11,-149.12 304.73,-244.01 415.54,-352.46"/>
   <path class="fil0 str7" d="M2479.45 11483.43c313.78,-38.39 784.44,-588.6 1111.28,-703.76 313.78,-102.36 549.11,-204.73 705.99,-524.62 26.15,-51.18 509.89,-63.98 640.63,-332.69 52.3,-102.37 993.62,-780.53 1111.28,-780.53"/>
   <path class="fil0 str7" d="M3262.99 11469.79c278.07,-90.72 794.49,-336.95 913.66,-609.1 79.45,-194.39 344.28,-64.8 542.9,-259.19 132.42,-129.6 225.11,-401.75 397.24,-401.75 370.76,0 569.39,-466.55 820.97,-466.55 331.04,0 450.21,-207.35 582.63,-336.95"/>
   <path class="fil0 str7" d="M4286.75 11453.02c324.83,-79.48 825.61,-331.16 1015.1,-622.59 216.56,-344.41 270.7,-119.22 541.39,-357.66 81.21,-66.23 203.02,-410.64 284.23,-410.64 216.56,0 284.23,-264.93 433.11,-357.66 108.28,-66.24 487.25,-105.97 527.85,-251.69"/>
   <path class="fil0 str7" d="M5268.78 11483.86c226.66,-119.45 836.91,-477.8 958.96,-699.64 69.74,-102.39 191.79,-597.26 331.28,-597.26 174.35,0 435.89,-307.16 523.06,-426.61 69.74,-85.32 470.76,-119.45 575.37,-273.03 17.44,-34.13 278.97,-221.84 313.84,-221.84"/>
   <path class="fil0 str7" d="M6164.21 11471.13c63.21,-123.74 126.43,-226.86 231.79,-329.97 126.43,-123.74 316.08,-226.86 442.51,-309.35 210.72,-123.74 442.51,-226.86 484.65,-515.58 0,-103.12 105.36,-82.49 189.65,-144.36 84.29,-61.87 273.93,-350.6 295.01,-412.47 0,-20.62 231.79,-185.61 231.79,-206.23"/>
   <path class="fil0 str7" d="M6714.81 11519.49c44.78,-87.66 89.57,-160.71 164.21,-233.76 89.57,-87.66 223.92,-160.71 313.48,-219.15 149.28,-87.66 313.49,-160.71 343.34,-365.26 0,-73.05 74.64,-58.44 134.35,-102.27 59.71,-43.83 194.06,-248.37 208.99,-292.2 0,-14.61 164.21,-131.49 164.21,-146.1"/>
   <g style="clip-path:url(#id4)">
    <image x="3495.06" y="4896.77" width="5850.8" height="5374.08" xlink:href="scribble_Images_Images\scribble_Images_ImgID4.png"/>
   </g>
   <path class="fil5" d="M1087.8 6654.76c-1.93,0 -6.71,-0.4 -14.37,-1.2 -0.64,15.66 -0.99,41.32 -0.99,77.04 0,5.94 -2.1,10.97 -6.31,15.26 -4.26,4.23 -9.63,6.34 -16.12,6.34 -6.48,0 -11.91,-2.11 -16.17,-6.34 -4.26,-4.29 -6.42,-9.31 -6.42,-15.26l0 -46.69c0,-17.32 1.17,-42.93 3.44,-76.87 2.16,-34.52 3.27,-60.24 3.39,-77.21 0.12,-29.04 8.47,-42.92 24.99,-41.67 3.85,-1.02 9.23,-1.77 16.06,-2.28 6.83,-0.52 15.18,-0.74 24.99,-0.74 22.37,0 43.33,7.09 62.95,21.26 21.78,15.83 32.7,35.15 32.7,57.95 0,28.58 -11.56,51.26 -34.74,68.13 -20.49,14.86 -44.96,22.29 -73.4,22.29zm8.53 -126.42c-3.62,0 -6.89,0 -9.64,0.06 -2.8,0.06 -5.2,0.23 -7.13,0.46 0,5.26 -0.06,13.09 -0.17,23.61 -0.23,12.4 -1.28,31.72 -3.21,57.95 5.84,0.86 9.69,1.31 11.62,1.31 17.81,0 32.58,-4.11 44.32,-12.4 12.56,-8.8 18.8,-20.46 18.8,-34.98 0,-9.48 -5.9,-17.94 -17.63,-25.31 -11.27,-7.15 -23.59,-10.69 -36.96,-10.69zm481.16 19.15c-8.87,0 -22.77,-0.63 -41.58,-1.83 -18.16,-1.26 -32,-1.83 -41.57,-1.72 0.47,12.74 1.98,35.38 4.61,67.95 2.39,28.8 3.56,51.55 3.56,68.3 0,3.83 0.41,9.43 1.22,16.91 0.76,7.49 1.17,13.15 1.17,16.92 0,8.34 -1.81,15.88 -5.43,22.57 -4.67,8.63 -11.33,12.92 -20.03,12.92 -6.25,0 -11.8,-1.94 -16.59,-5.89 -5.37,-4.34 -8.06,-9.77 -8.06,-16.4 0,-1.54 0.29,-3.89 0.88,-7.08 0.52,-3.2 0.82,-5.6 0.82,-7.26 0,-5.14 -0.35,-12.92 -1.11,-23.32 -0.76,-10.34 -1.11,-18.17 -1.11,-23.43 0,-14.91 -1.17,-35.2 -3.56,-60.75 -2.74,-29.31 -4.32,-49.61 -4.79,-60.75l-8.87 0c-25.46,0 -45.66,-1.77 -60.61,-5.31 -12.67,-3.03 -18.98,-10.34 -18.98,-21.94 0,-5.72 2.04,-10.86 6.13,-15.43 4.85,-5.49 11.09,-7.94 18.86,-7.37 3.97,0.23 13.02,1.14 27.21,2.86 11.27,1.2 20.38,1.83 27.33,1.83 7.01,0 17.41,-0.11 31.24,-0.34 13.84,-0.23 24.3,-0.34 31.24,-0.34 8.64,0 21.66,0.57 39,1.71 17.34,1.2 30.31,1.77 39.01,1.77 6.83,0 12.56,2.17 17.17,6.52 4.61,4.4 6.95,9.77 6.95,16.12 0,6.4 -2.34,11.77 -6.95,16.17 -4.61,4.4 -10.33,6.63 -17.17,6.63zm444.43 159.5c0,5.6 -0.94,14.4 -2.86,26.46 -2.28,14.4 -10.63,21.6 -24.99,21.6 -8,0 -16.99,-4.4 -27.04,-13.2 -43.91,-38.75 -93.49,-93.04 -148.67,-162.94 -0.7,29.03 -1.05,46.81 -1.05,53.38 0,8.86 0.23,22.12 0.64,39.89 0.41,17.72 0.58,31.04 0.58,39.83 0,32.92 -8.17,49.38 -24.58,49.38 -8.35,0 -15.01,-2.52 -20.03,-7.54 -4.44,-4.46 -6.66,-9.89 -6.66,-16.23 0,-4.46 0.35,-11.2 1.11,-20.23 0.7,-9.08 1.11,-15.83 1.11,-20.29 0,-6.57 0.23,-16.46 0.64,-29.6 0.47,-13.2 0.7,-23.09 0.7,-29.66 0,-7.03 -0.18,-17.6 -0.52,-31.83 -0.35,-14.17 -0.47,-24.74 -0.47,-31.77 0,-6.69 -0.7,-16.69 -2.05,-29.95 -1.34,-13.31 -2.04,-23.31 -2.04,-30 0,-6.69 2.92,-12.69 8.81,-17.89 5.84,-5.26 12.56,-7.89 20.09,-7.89 8.41,0 17.75,7.14 28.03,21.43 51.73,72.35 102.83,131.33 153.22,177 0.12,-3.6 0.18,-12.06 0.18,-25.49 0,-55.04 -0.58,-92.13 -1.69,-111.33 -0.24,-3.26 -0.99,-9.26 -2.22,-18.06 -1.11,-7.83 -1.69,-14 -1.69,-18.46 0,-15.38 8.35,-23.09 24.99,-23.09 18.57,0 27.85,28.06 27.85,84.24 0,1.2 -0.12,10 -0.35,26.46 -0.7,56.69 -1.05,91.95 -1.05,105.78zm250.68 -106.3c-11.97,43.78 -24,83.5 -36.09,119.21 -3.44,10.06 -9,20.41 -16.76,31.04 -5.49,7.31 -12.79,10.97 -21.9,10.86 -14.36,-0.23 -25.63,-13.77 -33.87,-40.69 -3.09,-10.29 -6.72,-29.43 -10.98,-57.44 -2.39,4.92 -3.85,8.17 -4.44,9.83 -5.9,13.89 -14.6,35.38 -25.98,64.52 -1.7,4.69 -4.26,8.4 -7.71,11.2 -4.79,7.49 -11.91,11.37 -21.37,11.72 -5.37,0.23 -10.98,-4.46 -16.94,-14.06 -6.25,-9.72 -11.33,-22.23 -15.24,-37.55 -3.5,-13.83 -8.99,-43.95 -16.41,-90.41 -1.57,-10.06 -2.39,-17.89 -2.39,-23.61 0,-6.11 2.39,-11.26 7.13,-15.31 4.73,-4.06 10.39,-6.11 16.99,-6.11 12.32,0 19.91,6 22.78,17.94 1.46,6.23 2.74,13.94 3.74,23.09 1.4,13.14 2.22,20.91 2.57,23.26 1.52,8.74 3.8,22.97 6.83,42.69 8.46,-22.63 18.16,-50.81 29.08,-84.52 4.67,-14.52 13.43,-21.78 26.33,-21.78 12.67,0 21.02,8.11 24.99,24.29 2.86,11.37 5.9,26.17 9.05,44.35 4.67,26.46 7.53,42.18 8.59,47.2 0.99,-3.43 9.98,-37.37 26.86,-101.78 2.51,-9.6 9.63,-14.4 21.37,-14.4 6.48,0 12.26,2.06 17.23,6.17 4.96,4.17 7.42,9.31 7.42,15.43 0,1.14 -0.3,2.74 -0.88,4.86zm168.46 156.7c-5.2,0 -13.55,-4.97 -24.94,-14.92 -10.51,4.91 -19.74,8.63 -27.73,11.15 -8,2.51 -14.78,3.77 -20.38,3.77 -27.45,0 -48.12,-7.2 -61.84,-21.6 -13.72,-14.4 -20.61,-35.95 -20.61,-64.64 0,-26.92 10.16,-49.94 30.43,-69.09 20.32,-19.15 44.61,-28.69 72.87,-28.69 10.86,0 23.42,2.97 37.67,8.98 17.22,7.14 25.81,15.48 25.81,25.03 0,3.94 -1.28,7.43 -3.91,10.4 -1.11,4.46 -1.98,10 -2.63,16.69 -0.64,6.69 -0.93,14.52 -0.93,23.43 0,21.15 1.52,36.35 4.61,45.6 0.35,1.03 2.98,6.75 7.88,17.26 4.44,9.49 6.66,14.92 6.66,16.23 0,5.89 -2.34,10.74 -6.95,14.57 -4.61,3.89 -9.93,5.83 -16,5.83zm-42.39 -113.04c0,-3.54 0.23,-7.66 0.76,-12.29 0.52,-4.63 1.28,-9.83 2.28,-15.49 -2.28,-1.14 -4.32,-1.94 -6.07,-2.46 -1.75,-0.52 -3.27,-0.74 -4.56,-0.74 -15.47,0 -29.02,5.94 -40.64,17.83 -11.62,11.89 -17.46,25.66 -17.46,41.32 0,14.91 2.74,26.17 8.24,33.72 5.43,7.54 13.66,11.31 24.58,11.31 7.07,0 13.78,-1.14 20.08,-3.43 6.31,-2.29 12.26,-5.66 17.87,-10.12 -3.39,-26.57 -5.08,-46.46 -5.08,-59.67zm214.71 -64.46c1.46,-38.01 3.21,-64.3 5.26,-78.81 1.93,-13.2 9.34,-19.78 22.25,-19.78 6.72,0 12.09,2.11 16.23,6.4 4.09,4.29 6.13,9.55 6.13,15.78 0,16.35 -1.29,40.69 -3.8,73.04 -2.57,32.35 -3.85,56.69 -3.85,73.04 0,39.89 1.28,66.64 3.91,80.13 0.35,1.83 0.53,3.48 0.53,4.91 0,6.23 -2.28,11.31 -6.83,15.31 -4.56,4 -9.87,6 -15.94,6 -8.41,0 -14.66,-3.66 -18.8,-11.03 -7.77,4.57 -15.76,7.54 -24.11,8.91 -8.29,1.43 -16.94,2.12 -25.81,2.12 -25.52,0 -46.77,-8 -63.65,-23.95 -17.23,-16.29 -25.81,-37.09 -25.81,-62.29 0,-30 8.64,-54.29 25.98,-72.75 17.34,-18.46 40,-27.72 67.97,-27.72 8.52,0 16.17,0.92 22.89,2.69 6.72,1.77 12.56,4.46 17.46,8zm-3.44 52.75c-3.74,-7.03 -8.64,-12.29 -14.71,-15.72 -6.02,-3.48 -13.2,-5.2 -21.55,-5.2 -16.87,0 -29.55,4.8 -37.96,14.35 -8.46,9.54 -12.67,23.83 -12.67,42.92 0,12.06 4.56,22.4 13.67,30.97 9.17,8.63 19.74,12.92 31.82,12.92 8.82,0 15.47,-1.03 20.03,-3.03 3.1,-1.31 8.3,-4.91 15.71,-10.69 1.98,-1.6 3.85,-3.31 5.66,-5.2 -0.24,-5.37 -0.24,-25.78 0,-61.32zm122.98 -85.67c-7.3,0 -13.61,-2.4 -18.98,-7.2 -5.37,-4.8 -8.06,-10.63 -8.06,-17.6 0,-6.92 2.69,-12.75 8.06,-17.55 5.37,-4.8 11.68,-7.2 18.98,-7.2 7.3,0 13.61,2.4 18.92,7.2 5.31,4.8 7.94,10.63 7.94,17.55 0,6.97 -2.63,12.8 -7.94,17.6 -5.31,4.8 -11.62,7.2 -18.92,7.2zm14.54 122.7c0,6.34 0.18,16.57 0.58,30.63 0.41,14.06 0.59,24.29 0.59,30.63 0,6.52 -2.22,11.83 -6.66,16 -4.5,4.17 -10.1,6.28 -16.94,6.28 -6.89,0 -12.49,-2.11 -16.99,-6.28 -4.44,-4.17 -6.66,-9.49 -6.66,-16 0,-6.34 -0.18,-16.57 -0.59,-30.63 -0.41,-14.06 -0.59,-24.29 -0.59,-30.63 0,-9.94 0.59,-22.35 1.7,-37.32 1.11,-14.97 1.69,-27.43 1.69,-37.31 0,-6.52 2.22,-11.83 6.66,-16 4.5,-4.17 10.1,-6.28 16.99,-6.28 6.83,0 12.44,2.11 16.93,6.28 4.44,4.17 6.66,9.49 6.66,16 0,9.89 -0.58,22.35 -1.69,37.31 -1.11,14.98 -1.69,27.38 -1.69,37.32zm188.55 85.44c-8.99,0 -15.89,-4.23 -20.56,-12.74 -5.54,-10.17 -13.95,-22.17 -25.11,-36 -17.34,-21.55 -26.57,-32.98 -27.56,-34.35 -9.11,6.63 -16.64,11.66 -22.59,15.09 -1.17,15.55 -1.7,30.35 -1.7,44.52 0,6.51 -2.22,11.83 -6.65,16.11 -4.5,4.23 -10.11,6.34 -16.94,6.34 -16.06,0 -24.11,-9.37 -24.11,-28.12 0,-8.86 0.64,-22 1.98,-39.6 1.28,-17.6 1.93,-30.81 1.93,-39.61 0,-16.17 0.24,-34.69 0.76,-55.49 0.53,-20.8 0.76,-39.21 0.76,-55.2 0,-4.8 -0.23,-10.46 -0.76,-16.98 -0.52,-6.52 -0.76,-12.17 -0.76,-16.97 0,-6.52 2.22,-11.83 6.66,-16 4.5,-4.17 10.1,-6.28 16.99,-6.28 6.83,0 12.44,2.11 16.93,6.28 4.44,4.17 6.66,9.48 6.66,15.94 0,4.91 0.29,10.74 0.88,17.43 0.52,6.69 0.82,12.52 0.82,17.43 0,13.26 -0.35,28.97 -0.99,47.2 -0.7,17.37 -0.99,32.92 -0.88,46.52 15.53,-11.71 39.12,-33.03 70.83,-63.95 5.02,-4.92 10.74,-7.37 17.11,-7.37 6.36,0 12.03,2.29 16.93,6.86 4.91,4.57 7.36,9.89 7.36,15.94 0,5.09 -2.22,10.06 -6.66,14.86 -13.49,14.74 -29.49,30.17 -48.06,46.24l35.56 44.92c17.22,22.4 25.81,37.37 25.81,44.86 0,6.17 -2.51,11.37 -7.54,15.66 -5.02,4.29 -10.74,6.46 -17.11,6.46zm131.56 0.8c-27.27,0 -49.58,-6.35 -66.92,-19.09 -19.15,-14.06 -28.73,-33.89 -28.73,-59.44 0,-28.29 7.59,-52.18 22.77,-71.72 16.87,-21.66 39.59,-32.46 68.26,-32.46 19.85,0 36.32,3.15 49.46,9.37 17.23,8.29 25.81,21.09 25.81,38.52 0,12.29 -7.01,23.15 -21.02,32.63 -6.43,4.4 -19.27,10.74 -38.54,19.09l-57.63 24.98c5.49,5.83 12.09,10.17 19.85,13.09 7.76,2.91 16.64,4.35 26.69,4.35 15.24,0 28.2,-3.09 38.83,-9.2 9.46,-5.48 17.06,-8.23 22.72,-8.23 11.85,0 17.81,5.66 17.81,16.91 0,12.74 -9.52,23.09 -28.56,31.15 -16,6.69 -32.93,10.06 -50.8,10.06zm-4.62 -142.19c-10.63,0 -19.68,3.48 -27.21,10.4 -7.54,6.91 -13.6,17.31 -18.16,31.15 12.91,-5.49 25.75,-10.92 38.54,-16.23 15.42,-6.86 27.68,-13.15 36.79,-18.97 -7.65,-4.23 -17.64,-6.34 -29.96,-6.34z"/>
  </g>
 </g>
</svg>
